<svg viewBox="0 0 24 24" xmlns="http://www.w3.org/2000/svg"><path fill="#fff" d="m11.5565687 17.9636033c-3.18672384 0-5.77828436-2.6855587-5.77828436-5.9878678 0-3.30230903 2.59156052-5.98786773 5.77828436-5.98786773 3.1867238 0 5.7782843 2.6855587 5.7782843 5.98786773 0 3.3023091-2.5915605 5.9878678-5.7782843 5.9878678zm0-8.98180164c-1.59336193 0-2.8891422 1.34277934-2.8891422 2.99393384 0 1.6511546 1.29578027 2.9939339 2.8891422 2.9939339 1.5933619 0 2.8891421-1.3427793 2.8891421-2.9939339 0-1.6511545-1.2957802-2.99393384-2.8891421-2.99393384zm0 14.96966944c-6.37200308 0-11.5565687-5.3726144-11.5565687-11.9757356 0-6.60312114 5.18456562-11.9757355 11.5565687-11.9757355 6.372003 0 11.5565686 5.37261436 11.5565686 11.9757355 0 .8128531-.0794514 1.6257061-.235465 2.4131108-.4969325 2.4550257-2.8010234 4.0193562-5.1354502 3.5103874-1.1325438-.2440056-2.1061847-.9311134-2.7403514-1.9355782-.6341667-1.0029679-.8537415-2.2035354-.6168318-3.3771574.1603473-.8098592.9274146-1.3293067 1.7089275-1.1601494.781513.1691572 1.2827792.9625497 1.1180981 1.7709119-.0780069.3922053-.0057783.7903985.2065736 1.1257191.212352.3353206.5359359.5643566.912969.6466897.7771792.1586785 1.545691-.3517872 1.7103721-1.1601493.1227886-.6137565.182016-1.2215251.182016-1.8337846 0-4.95346357-3.8873408-8.98180161-8.6674265-8.98180161-4.78008575 0-8.66742653 4.02833804-8.66742653 8.98180161 0 4.9534637 3.88734078 8.9818017 8.66742653 8.9818017 1.0227563 0 2.0267332-.18263 2.9815947-.544896.7497324-.2814297 1.5774716.1137695 1.8519401.8936893.273024.7769258-.111232 1.6361849-.8624089 1.9191116-1.2712226.4820234-2.6088954.726029-3.9711259.726029z" transform="translate(.368896)"/></svg>