<svg viewBox="0 0 24 24" xmlns="http://www.w3.org/2000/svg"><path d="m12 .00242129c-6.2743424.04054365-11.47263686 4.87881291-11.96263624 11.13412401-.48999937 6.2553111 3.8915168 11.8439989 10.08301554 12.8610334v-8.428299h-2.99939464v-3.4892958h2.99939464v-2.69945525c0-2.99939468 1.7996368-4.69905166 4.539084-4.69905166.8975462.01160319 1.7930606.08845704 2.6794592.22995359v3.08937652h-1.5096953c-.9469302-.12406387-1.8152125.54281272-1.9396086 1.48969935-.0200099.1258507-.0200099.25407264 0 .37992333v2.22955002h3.3093322l-.5298931 3.4892958h-2.789437v8.4083031c6.1914987-1.0170345 10.5730149-6.6057223 10.0830155-12.8610334-.4899993-6.2553111-5.6882938-11.09358036-11.9626362-11.13412401z" fill-rule="evenodd"/></svg>