<svg viewBox="0 0 24 24" xmlns="http://www.w3.org/2000/svg"><path d="m12.2206892 10.4229916v3.7839007h6.2583787c-.2528731 1.6229853-1.8905711 4.7576919-6.2583787 4.7576919-3.7655099 0-6.84044646-3.1163158-6.84044646-6.9645842 0-3.84826839 3.07585609-6.96458418 6.84044646-6.96458418 2.1425246 0 3.5779241.90942352 4.3999915 1.70022658l2.9921781-2.88551164c-1.9218354-1.7940195-4.4137846-2.8845921-7.3921696-2.8845921-6.10113755 0-11.03446131 4.93332376-11.03446131 11.03446134 0 6.1011376 4.93332376 11.0344613 11.03446131 11.0344613 6.3687233 0 10.5930829-4.4772326 10.5930829-10.7825078 0-.7245963-.0781608-1.2781584-.1737928-1.8289619z" fill-rule="evenodd"/></svg>