<svg viewBox="0 0 24 24" xmlns="http://www.w3.org/2000/svg"><path d="m12.0175431 0c-6.63731671 0-12.0175431 5.367-12.0175431 11.987 0 5.079 3.16578255 9.417 7.63677374 11.162-.10525877-.949-.19949042-2.403.04110104-3.439.2195397-.937 1.40946493-5.957 1.40946493-5.957s-.35988472-.72-.35988472-1.781c0-1.663.96938307-2.911 2.17334281-2.911 1.0265235 0 1.5217409.769 1.5217409 1.688 0 1.029-.6546092 2.567-.9944446 3.992-.2857024 1.193.6014786 2.165 1.7793743 2.165 2.1332442 0 3.7772858-2.245 3.7772858-5.487 0-2.861-2.0680841-4.869-5.0203417-4.869-3.41840356 0-5.42232988 2.562-5.42232988 5.199 0 1.033.39497097 2.143.89119084 2.741.09924398.12.11227602.225.08520948.345-.0902218.375-.29372207 1.199-.33482311 1.363-.05313061.225-.17242387.271-.40198822.165-1.49868427-.69-2.43899587-2.878-2.43899587-4.646 0-3.776 2.75477215-7.252 7.93951796-7.252 4.168247 0 7.4102168 2.967 7.4102168 6.923 0 4.135-2.6134247 7.462-6.2483605 7.462-1.2169918 0-2.3598012-.629-2.7647968-1.379l-.75084587 2.848c-.26966292 1.045-1.00647424 2.352-1.50169165 3.146 1.12576751.345 2.31168292.535 3.55874862.535 6.6232822 0 12.0145357-5.365 12.0145357-11.987 0-6.623-5.3912535-11.987-12.0145357-11.987z" fill-rule="evenodd"/></svg>