<svg viewBox="0 0 24 24"  xmlns="http://www.w3.org/2000/svg"><path d="m23.953002 4.58154047c-.8849632.38836966-1.8299238.65294025-2.8248823.77374418 1.0139577-.61000993 1.7939252-1.57144947 2.1629098-2.71858762-.9509603.55410067-2.0049164.95744603-3.1268697 1.18208144-.8959626-.95744603-2.1729094-1.55647378-3.5908504-1.55647378-2.7168868 0-4.919795 2.19943023-4.919795 4.90903243 0 .38936804.0449982.76376039.1269947 1.12217866-4.08982954-.19268726-7.71467851-2.15350477-10.14057743-5.11769377-.42698221.72083006-.66597225 1.55847054-.66597225 2.47098948 0 1.7072291.86996375 3.20779362 2.18790884 4.08936279-.80696638-.02595787-1.56593476-.24759813-2.22790717-.61500182v.06090115c0 2.38113529 1.69292946 4.36691229 3.94583559 4.81917829-.4129828.1108201-.84896463.1707229-1.29594601.1707229-.31398691 0-.61497437-.0299514-.91596183-.0858607.63097371 1.9498354 2.44489813 3.3715279 4.60380817 3.4114631-1.67993 1.3168627-3.8088413 2.101589-6.10174576 2.101589-.38998375 0-.77896754-.0229627-1.16995125-.0668914 2.1889088 1.3917411 4.76780134 2.2054205 7.55668514 2.2054205 9.05362276 0 13.99841676-7.4838534 13.99841676-13.96333691 0-.20866133 0-.41931942-.0149994-.62897914.96096-.68788353 1.799925-1.55747215 2.4598975-2.54387119z" fill-rule="evenodd"/></svg>