<svg viewBox="0 0 24 24" xmlns="http://www.w3.org/2000/svg"><path fill="#fff" d="m23.4989472 6.41804393c-.2829142-.97617471-1.0750562-1.73897818-2.0887761-2.01141402-1.8706951-.48262377-9.3994925-.48262377-9.3994925-.48262377s-7.50979027-.00963321-9.3994924.48262377c-1.01371989.27243584-1.80586196 1.03523931-2.0887761 2.01141402-.35461117 1.84428801-.52943617 3.71645617-.52219403 5.59207777-.00587305 1.8685441.16894622 3.7335559.52219403 5.5708847.28291414.9761747 1.07505621 1.7389782 2.0887761 2.011414 1.86869432.4835871 9.3994924.4835871 9.3994924.4835871s7.50879 0 9.3994925-.4835871c1.0137199-.2724358 1.8058619-1.0352393 2.0887761-2.011414.3458677-1.8379943.5133187-3.7030007.5001858-5.5708847.0145018-1.8749591-.1529546-3.74712177-.5001858-5.59207777zm-13.89116137 9.05136307v-6.92916715l6.26632827 3.46988185z"/></svg>