<svg height="20" viewBox="0 0 20 20" width="20" xmlns="http://www.w3.org/2000/svg"><path d="m20 10c0 5.5227273-4.4772727 10-10 10-5.52272727 0-10-4.4772727-10-10 0-5.52272727 4.47727273-10 10-10 5.5227273 0 10 4.47727273 10 10zm-1.7519531 0c0-4.55517134-3.6928755-8.24804688-8.2480469-8.24804688-4.55517134 0-8.24804688 3.69287554-8.24804688 8.24804688 0 4.5551714 3.69287554 8.2480469 8.24804688 8.2480469 4.5551714 0 8.2480469-3.6928755 8.2480469-8.2480469zm-4.3526617-3.30408381c.2010098-.20832737.4936639-.30099792.7779489-.24634184s.5217123.24923905.631142.51725093c.1381534.32975073.0614471.710401-.1936363.96090909l-6.05629435 6.02135653c-.30522373.3076884-.79244983.3381644-1.13363636.0709091l-3.24114701-2.6481818c-.24268227-.1912118-.36617977-.4964846-.32471022-.8026495.04146955-.3061648.24172485-.5675858.5265284-.68735052.28454545-.11727273.60909091-.07272727.85181818.11818182l2.63841974 2.1809091z"/></svg>