<svg fill="none" viewBox="0.26 0.27 20.1 20.1" xmlns="http://www.w3.org/2000/svg"><path d="m10.2895508.29378255c-5.52000002 0-10.00000002 4.48-10.00000002 10.00000005 0 5.52 4.48 10 10.00000002 10 5.52 0 10-4.48 10-10 0-5.52000005-4.48-10.00000005-10-10.00000005zm0 18.00000005c-4.41000002 0-8.00000002-3.59-8.00000002-8 0-4.41000005 3.59-8.00000005 8.00000002-8.00000005 4.41 0 8 3.59 8 8.00000005 0 4.41-3.59 8-8 8zm0-12.50000005c-2.49000002 0-4.50000002 2.01-4.50000002 4.50000005 0 2.49 2.01 4.5 4.50000002 4.5 2.49 0 4.5-2.01 4.5-4.5 0-2.49000005-2.01-4.50000005-4.5-4.50000005zm0 5.50000005c-.55000002 0-1.00000002-.45-1.00000002-1 0-.55000005.45-1.00000005 1.00000002-1.00000005.55 0 1 .45 1 1.00000005 0 .55-.45 1-1 1z" fill="currentColor" /></svg>