<svg fill="none" viewBox="0 0 20 20" xmlns="http://www.w3.org/2000/svg"><path d="m12.25.26-.08-.04-.01.02c-.7-.15-1.42-.24-2.16-.24-5.52 0-10 4.48-10 10s4.48 10 10 10 10-4.48 10-10c0-4.75-3.31-8.72-7.75-9.74zm5.16 6.74h-7.99l2.71-4.7c2.4.66 4.35 2.42 5.28 4.7zm-6.31-4.92-2.83 4.92-1.15 2-2.72-4.7c1.44-1.42 3.42-2.3 5.6-2.3.37 0 .74.03 1.1.08zm-7.4 3.01 2.84 4.91 1.15 2h-5.43c-.16-.64-.26-1.31-.26-2 0-1.85.64-3.55 1.7-4.91zm-1.11 7.91h7.98l-2.71 4.7c-2.4-.67-4.34-2.42-5.27-4.7zm6.31 4.91 3.99-6.91 2.72 4.7c-1.45 1.42-3.43 2.3-5.61 2.3-.38 0-.74-.04-1.1-.09zm7.4-3-4-6.91h5.43c.17.64.27 1.31.27 2 0 1.85-.64 3.55-1.7 4.91z" fill="currentColor" /></svg>