<svg fill="none" viewBox="0 0 20 20" xmlns="http://www.w3.org/2000/svg"><path d="m17.5215122.06508061c-.2732809 0-.5360511.10510805-.7462672.30481335l-9.41768139 9.41768143 2.89047139 2.89047141 9.4176815-9.41768142c.4099214-.4099214.4099214-1.07210213 0-1.48202353l-1.4084479-1.40844789c-.2102161-.2102161-.4729863-.30481335-.7357564-.30481335zm-12.26610962 11.56188569c-1.74479366 0-3.15324155 1.4084479-3.15324155 3.1532415 0 1.3769155-1.2192534 2.1021611-2.10216103 2.1021611.96699408 1.2823182 2.61719049 2.102161 4.20432206 2.102161 2.32288795 0 4.20432207-1.8814341 4.20432207-4.2043221 0-1.7447936-1.40844789-3.1532415-3.15324155-3.1532415z" transform="translate(0 .5)" fill="currentColor" /></svg>