<svg fill="none" viewBox="0 0 20 20" xmlns="http://www.w3.org/2000/svg"><path d="m19.6627376 17.0986011-8.2473132-8.24731315c.8447138-2.1254089.4087325-4.63230145-1.307944-6.35806082-2.08907708-2.08907713-5.34077104-2.27981895-7.65692177-.59039136l3.48785051 3.49693345-1.28977806 1.28069511-3.47876756-3.47876757c-1.68942759 2.30706779-1.49868577 5.56784469.59039136 7.64783884 1.68942759 1.6894276 4.15090542 2.1344919 6.25814844 1.3442758l8.27456198 8.274562c.3542348.3542348.9264603.3542348 1.2806951 0l2.0890772-2.0890772c.3633177-.3451518.3633177-.9173773 0-1.2806951zm-2.7248832 1.4532711-8.5924651-8.59246508c-.55405958.40873248-1.17169978.65397198-1.8165888.74480138-1.23528039.1816589-2.53414139-.1907418-3.47876757-1.13536797-.86287968-.85379674-1.26252922-1.99824769-1.19894861-3.12453275l2.80662971 2.80662971 3.85116827-3.85116827-2.80662971-2.80662971c1.12628506-.0635806 2.26165307.33606893 3.12453275 1.18986567.98095795.98095796 1.35335866 2.33431662 1.12628506 3.59684584-.10899533.64488902-.38148365 1.24436333-.79929908 1.78025703l8.58338208 8.58338215z" fill="currentColor" transform="translate(0 -.734049)" /></svg>