<svg fill="none" viewBox="0 0 20 20" xmlns="http://www.w3.org/2000/svg"><path d="m10 5.45454545c1.0090909 0 1.8181818-.81818181 1.8181818-1.81818181 0-.34545455-.0909091-.66363637-.2636363-.93636364l-1.5545455-2.7-1.55454545 2.7c-.17272728.27272727-.26363637.59090909-.26363637.93636364 0 1 .81818182 1.81818181 1.81818182 1.81818181zm4.1818182 9.08181815-.9727273-.9727272-.9818182.9727272c-1.1818182 1.1818182-3.25454543 1.1909091-4.44545452 0l-.97272727-.9727272-.99090909.9727272c-.59090909.5909091-1.38181818.9181819-2.21818182.9181819-.66363636 0-1.27272727-.209091-1.78181818-.5545455v4.1909091c0 .5.40909091.9090909.90909091.9090909h14.54545457c.5 0 .9090909-.4090909.9090909-.9090909v-4.1909091c-.5090909.3454545-1.1181818.5545455-1.7818182.5545455-.8363636 0-1.6272727-.3272728-2.2181818-.9181819zm1.2727273-6.35454542h-4.5454546v-1.81818182h-1.81818181v1.81818182h-4.54545454c-1.50909091 0-2.72727273 1.21818182-2.72727273 2.72727272v1.4c0 .9818182.8 1.7818182 1.78181818 1.7818182.47272727 0 .92727273-.1818182 1.25454545-.5181818l1.94545455-1.9363637 1.93636364 1.9363637c.67272727.6727272 1.84545456.6727272 2.51818186 0l1.9454545-1.9363637 1.9363636 1.9363637c.3363637.3363636.7818182.5181818 1.2545455.5181818.9818182 0 1.7818182-.8 1.7818182-1.7818182v-1.4c.0090909-1.5090909-1.2090909-2.72727272-2.7181818-2.72727272z" fill="currentColor" /></svg>