<svg fill="none" viewBox="0 0 24 24" xmlns="http://www.w3.org/2000/svg">
	<path fill-rule="evenodd" clip-rule="evenodd" d="M8.13877 4.50131L15.7841 4.5C17.2301 4.49975 17.7552 4.65057 18.2852 4.93385C18.8153 5.21712 19.2322 5.63288 19.5174 6.16268C19.8027 6.69248 19.9558 7.21802 19.9628 8.66734L19.9998 16.3299C20.0068 17.7793 19.8587 18.3048 19.5786 18.8347C19.2984 19.3646 18.8855 19.7805 18.3582 20.064C17.8309 20.3475 17.3073 20.4984 15.8612 20.4987L8.21593 20.5C6.76988 20.5002 6.24478 20.3494 5.71476 20.0662C5.18474 19.7829 4.76784 19.3671 4.48256 18.8373C4.19728 18.3075 4.04418 17.782 4.03719 16.3327L4.00024 8.67006C3.99325 7.22074 4.14128 6.69516 4.42145 6.16526C4.70162 5.63536 5.11451 5.21946 5.64179 4.936C6.16908 4.65255 6.69272 4.50155 8.13877 4.50131V4.50131ZM7.55556 7.16667C7.06464 7.16667 6.66667 7.56464 6.66667 8.05556V16.9444C6.66667 17.4354 7.06464 17.8333 7.55556 17.8333H10.2222C10.7131 17.8333 11.1111 17.4354 11.1111 16.9444V8.05556C11.1111 7.56464 10.7131 7.16667 10.2222 7.16667H7.55556ZM13.7778 13.3889C13.2869 13.3889 12.8889 13.7869 12.8889 14.2778V16.9444C12.8889 17.4354 13.2869 17.8333 13.7778 17.8333H16.4444C16.9354 17.8333 17.3333 17.4354 17.3333 16.9444V14.2778C17.3333 13.7869 16.9354 13.3889 16.4444 13.3889H13.7778ZM13.7778 7.16667C13.2869 7.16667 12.8889 7.56464 12.8889 8.05556V10.7222C12.8889 11.2131 13.2869 11.6111 13.7778 11.6111H16.4444C16.9354 11.6111 17.3333 11.2131 17.3333 10.7222V8.05556C17.3333 7.56464 16.9354 7.16667 16.4444 7.16667H13.7778Z" fill="currentColor"/>
</svg>
