<svg fill="none" viewBox="0 0 20 20" xmlns="http://www.w3.org/2000/svg"><g fill="currentColor"><path d="m10 20c-5.51 0-10-4.49-10-10s4.49-10 10-10 10 4.04 10 9c0 3.31-2.69 6-6 6h-1.77c-.28 0-.5.22-.5.5 0 .12.05.23.13.33.41.47.64 1.06.64 1.67 0 1.38-1.12 2.5-2.5 2.5zm0-18c-4.41 0-8 3.59-8 8s3.59 8 8 8c.28 0 .5-.22.5-.5 0-.16-.08-.28-.14-.35-.41-.46-.63-1.05-.63-1.65 0-1.38 1.12-2.5 2.5-2.5h1.77c2.21 0 4-1.79 4-4 0-3.86-3.59-7-8-7z" /><circle cx="4.5" cy="9.5" r="1.5" /><circle cx="7.5" cy="5.5" r="1.5" /><circle cx="12.5" cy="5.5" r="1.5" /><circle cx="15.5" cy="9.5" r="1.5" /></g></svg>