<svg fill="none" viewBox="0 0 20 20" xmlns="http://www.w3.org/2000/svg"><path d="m16.2866269 2.68018331 1.0220802 1.02208026-2.9884738 2.98847383-1.0220803-1.02208027zm.0111095-2.67740592c-.2888487 0-.5665879.11109568-.7887793.32217748l-3.4661853 3.46618525-2.14414661-2.12192751-1.5664491 1.5664491 1.57755867 1.57755868-9.90973476 9.90973471v5.2770449h5.27704485l9.90973475-9.9097348 1.5775587 1.5775587 1.5664491-1.5664491-2.1330371-2.13303707 3.4661853-3.46618525c.4443827-.44438273.4443827-1.14428552.0111095-1.57755867l-2.5996389-2.59963894c-.2221914-.2110818-.4999306-.32217748-.7776698-.32217748zm-11.9427857 17.77530901-2.13303708-2.1330371 8.95431188-8.9543119 2.1330371 2.13303708z" fill="currentColor" /></svg>