<svg fill="none" viewBox="0 0 20 20" xmlns="http://www.w3.org/2000/svg"><path d="m10 0c-5.52222222 0-10 4.47777778-10 10 0 5.5222222 4.47777778 10 10 10 .9222222 0 1.6666667-.7444444 1.6666667-1.6666667 0-.4333333-.1666667-.8222222-.4333334-1.1222222-.2555555-.2888889-.4222222-.6777778-.4222222-1.1 0-.9222222.7444445-1.6666667 1.6666667-1.6666667h1.9666666c3.0666667 0 5.5555556-2.4888888 5.5555556-5.55555551 0-4.91111111-4.4777778-8.88888889-10-8.88888889zm-6.11111111 10c-.92222222 0-1.66666667-.74444444-1.66666667-1.66666667 0-.92222222.74444445-1.66666666 1.66666667-1.66666666s1.66666667.74444444 1.66666667 1.66666666c0 .92222223-.74444445 1.66666667-1.66666667 1.66666667zm3.33333333-4.44444444c-.92222222 0-1.66666666-.74444445-1.66666666-1.66666667s.74444444-1.66666667 1.66666666-1.66666667 1.66666667.74444445 1.66666667 1.66666667-.74444445 1.66666667-1.66666667 1.66666667zm5.55555558 0c-.9222222 0-1.6666667-.74444445-1.6666667-1.66666667s.7444445-1.66666667 1.6666667-1.66666667 1.6666666.74444445 1.6666666 1.66666667-.7444444 1.66666667-1.6666666 1.66666667zm3.3333333 4.44444444c-.9222222 0-1.6666667-.74444444-1.6666667-1.66666667 0-.92222222.7444445-1.66666666 1.6666667-1.66666666s1.6666667.74444444 1.6666667 1.66666666c0 .92222223-.7444445 1.66666667-1.6666667 1.66666667z" fill="currentColor" /></svg>