<svg fill="none" viewBox="0 0 20 20" xmlns="http://www.w3.org/2000/svg"><path d="m17.5 7.5v-1.66666667c0-1.375-1.125-2.5-2.5-2.5h-10c-1.375 0-2.5 1.125-2.5 2.5v1.66666667c-1.375 0-2.5 1.125-2.5 2.5v4.1666667c0 1.375 1.125 2.5 2.5 2.5h15c1.375 0 2.5-1.125 2.5-2.5v-4.1666667c0-1.375-1.125-2.5-2.5-2.5zm-13.33333333-1.66666667c0-.45833333.375-.83333333.83333333-.83333333h10c.4583333 0 .8333333.375.8333333.83333333v2.31666667c-.5083333.45833333-.8333333 1.11666667-.8333333 1.85v1.6666667h-10v-1.6666667c0-.73333333-.325-1.39166667-.83333333-1.85zm14.16666663 8.33333337c0 .4583333-.375.8333333-.8333333.8333333h-15c-.45833333 0-.83333333-.375-.83333333-.8333333v-4.1666667c0-.45833333.375-.83333333.83333333-.83333333s.83333333.375.83333333.83333333v3.3333333h13.33333337v-3.3333333c0-.45833333.375-.83333333.8333333-.83333333s.8333333.375.8333333.83333333z" fill="currentColor" /></svg>