<svg fill="none" viewBox="0 0 20 20" xmlns="http://www.w3.org/2000/svg"><path d="m11 0v3.03759398c3.39.49122808 6 3.39849625 6 6.93734336 0 .90225566-.18 1.75438596-.48 2.54636596l2.6 1.5338345c.56-1.2431077.88-2.6265664.88-4.08020046 0-5.19298245-3.95-9.47368421-9-9.97493734zm-1 16.9924812c-3.87 0-7-3.1378446-7-7.01754386 0-3.53884711 2.61-6.44611528 6-6.93734336v-3.03759398c-5.06.50125313-9 4.77192982-9 9.97493734 0 5.53383456 4.47 10.02506266 9.99 10.02506266 3.31 0 6.24-1.6140351 8.06-4.1002506l-2.6-1.5338346c-1.28 1.60401-3.24 2.6265664-5.45 2.6265664z" fill="currentColor" /></svg>