<svg fill="none" viewBox="0 0 24 24" xmlns="http://www.w3.org/2000/svg"><path d="m5 3.75h14c.6904 0 1.25.55964 1.25 1.25v14c0 .6904-.5596 1.25-1.25 1.25h-14c-.69036 0-1.25-.5596-1.25-1.25v-14c0-.69036.55964-1.25 1.25-1.25z" stroke="currentColor" stroke-width="1.5" fill="none"/><g fill="currentColor"><path d="m3 5c0-1.10457.89543-2 2-2h14c1.1046 0 2 .89543 2 2v2h-18z"/><path d="m11.6959 13.7224c.3563-.5469.599-.9586.7281-1.2351.1351-.2765.2027-.5376.2027-.7834 0-.2642-.0768-.47-.2304-.6175-.1475-.1536-.3533-.2304-.6175-.2304-.2949 0-.5684.0707-.8203.212s-.4977.3318-.7373.5714l-.1475-1.1889c.2888-.2335.5899-.4086.9033-.52538.3133-.11675.6605-.17512 1.0414-.17512.3748 0 .6943.07988.9586.23963.2642.15357.4608.36257.5898.62677.1352.2642.2028.556.2028.8755 0 .3626-.0799.7343-.2396 1.1152-.1537.381-.4271.8695-.8203 1.4655l-.7558 1.1521h2.0461v1.1059h-4z"/></g></svg>