<svg fill="none" viewBox="0 0 24 24" xmlns="http://www.w3.org/2000/svg"><path d="M12 2.25A9.75 9.75 0 1 0 21.75 12 9.761 9.761 0 0 0 12 2.25Zm0 18A8.25 8.25 0 1 1 20.25 12 8.26 8.26 0 0 1 12 20.25Z" fill="currentColor"/><path d="M12 7.083a2.753 2.753 0 0 0-2.75 2.75.75.75 0 1 0 1.5 0 1.25 1.25 0 0 1 2.5 0c0 .374-.166.613-.658.945A2.595 2.595 0 0 0 11.25 13v.25a.75.75 0 1 0 1.5 0V13c0-.39.171-.636.68-.978a2.555 2.555 0 0 0 1.32-2.188A2.753 2.753 0 0 0 12 7.084ZM11.996 15.125a1.127 1.127 0 1 0 .004 0h-.004Z" fill="currentColor"/></svg>