<svg fill="none" viewBox="0 0 20 20" xmlns="http://www.w3.org/2000/svg"><path d="m11.9047619 3.80952381c0-1.04761905-.8571429-1.90476191-1.9047619-1.90476191h-.95238095v-.95238095c0-.52380952-.42857143-.95238095-.95238095-.95238095h-3.80952381c-.52380953 0-.95238096.42857143-.95238096.95238095v.95238095h-.95238095c-1.04761905 0-1.9047619.85714286-1.9047619 1.90476191v14.28571429c0 1.047619.85714285 1.9047619 1.9047619 1.9047619h7.61904762c1.047619 0 1.9047619-.8571429 1.9047619-1.9047619h7.6190476v-14.28571429zm5.7142857 12.38095239h-7.6190476v1.9047619h-7.61904762v-14.28571429h2.85714286v-1.90476191h1.9047619v1.90476191h2.85714286v1.9047619h7.6190476zm-10.47619046-2.8571429h1.90476191v1.9047619h-1.90476191zm0-6.66666663h1.90476191v1.9047619h-1.90476191zm3.80952386 6.66666663h1.9047619v1.9047619h-1.9047619zm0-6.66666663h1.9047619v1.9047619h-1.9047619zm3.8095238 6.66666663h1.9047619v1.9047619h-1.9047619zm0-6.66666663h1.9047619v1.9047619h-1.9047619z" fill="currentColor" /></svg>