<svg fill="none" viewBox="0 0 24 24" xmlns="http://www.w3.org/2000/svg"><rect height="16.5" rx="1.53571" stroke="currentColor" stroke-width="1.5" width="16.5" x="3.75" y="3.75" fill="none"/><path d="m9.27273 11.4545h-3.27273v1.091h3.27273zm1.18367-1.76723-1.1564-1.15636-.76909.76909 1.15636 1.1564zm2.0891-3.68727h-1.091v3.27273h1.091zm2.9236 3.3-.7691-.76909-1.1564 1.15636.7691.76913zm-.7418 2.1545v1.091h3.2727v-1.091zm-2.7273-1.0909c-.9055 0-1.6364.7309-1.6364 1.6364s.7309 1.6364 1.6364 1.6364 1.6364-.7309 1.6364-1.6364-.7309-1.6364-1.6364-1.6364zm1.5436 3.9491 1.1564 1.1564.7691-.7691-1.1564-1.1564zm-5.01269.3873.76909.7691 1.1564-1.1564-.76913-.7691zm2.92359 3.3h1.091v-3.2727h-1.091z" fill="currentColor"/></svg>
