<svg fill="none" viewBox="0 0 24 24" xmlns="http://www.w3.org/2000/svg"><rect height="16.5" rx="1.53571" stroke="currentColor" stroke-width="1.5" width="16.5" x="3.75" y="3.75" fill="none"/><path d="m15.4536 12.2145c-.1443-.0858-.2938-.1555-.4433-.2145.1495-.059.299-.1287.4433-.2145.9897-.5952 1.5412-1.6729 1.5464-2.78282-.4691-.27882-1.0052-.42895-1.5515-.42895-.5258 0-1.0567.13941-1.5413.42895-.1443.08579-.2783.18767-.402.28955.0257-.16622.0412-.33781.0412-.50939 0-1.19035-.6237-2.2252-1.5464-2.78284-.9227.55764-1.5464 1.59249-1.5464 2.78284 0 .17158.0155.34317.0412.50939-.1237-.10724-.2577-.20912-.402-.29491-.48455-.28955-1.01548-.42896-1.54125-.42896-.54124 0-1.08248.15014-1.55155.42896 0 1.10988.55155 2.18768 1.54639 2.78288.14433.0858.29382.1555.4433.2144-.14948.059-.29897.1287-.4433.2145-.98969.5952-1.54124 1.6729-1.54639 2.7829.46907.2788 1.00515.4289 1.55155.4289.52577 0 1.0567-.1394 1.54125-.4289.1443-.0858.2783-.1877.402-.2896-.0257.1716-.0412.3432-.0412.5148 0 1.1903.6237 2.2252 1.5464 2.7828.9227-.5576 1.5464-1.5925 1.5464-2.7828 0-.1716-.0155-.3432-.0412-.5094.1237.1072.2577.2037.402.2895.4846.2896 1.0155.429 1.5413.429.5412 0 1.0824-.1502 1.5515-.429-.0052-1.1099-.5567-2.1876-1.5464-2.7828zm-1.3093-2.0805c.1083-.0911.1959-.15545.2784-.19834.3144-.18767.6701-.28955 1.0309-.28955.1392 0 .2732.01609.4072.0429-.1598.48789-.4845.90619-.9175 1.16889-.0876.0536-.1856.0965-.299.1448l-.7113.2788c-.0876-.2466-.2114-.4665-.3711-.6649zm-2.1443-2.76135c.3247.38606.5155.89008.5155 1.41019 0 .10188-.0103.21984-.0258.3378l-.1186.77212c-.1237-.02145-.2474-.03753-.3711-.03753s-.2474.01608-.366.03753l-.1185-.77212c-.0207-.11796-.031-.23592-.031-.3378 0-.52547.1908-1.02413.5155-1.41019zm-3.86082 2.311c.13402-.03218.27319-.0429.41237-.0429.35567 0 .71134.09652 1.02577.28955.07732.04825.16495.1072.25258.1877l.5928.5147c-.1547.193-.2732.4075-.3608.6434l-.71138-.2788c-.10825-.0482-.20619-.0965-.28866-.1448-.44846-.268-.76805-.6809-.92268-1.16885zm1.71649 4.17695c-.10825.0911-.19588.1555-.27835.1984-.31443.1876-.6701.2895-1.03093.2895-.13917 0-.27319-.0161-.40721-.0429.15979-.4879.48453-.9061.91752-1.1689.08763-.0536.18557-.0965.29897-.1447l.71133-.2789c.0825.2467.2114.4719.3711.6649zm2.14433 2.7667c-.3247-.386-.5155-.89-.5155-1.4101 0-.1073.0103-.2199.031-.3486l.1134-.7614c.1185.0215.2422.0376.3711.0376.1237 0 .2474-.0161.366-.0376l.1185.7722c.0207.1179.031.2359.031.3378 0 .5254-.1908 1.0241-.5155 1.4101zm3.4485-2.2734c-.3557 0-.7114-.0965-1.0258-.2896-.0928-.0536-.1753-.1179-.2526-.1823l-.5928-.5147c.1547-.193.2784-.4075.3608-.6488l.7114.2788c.1134.0429.2113.0912.2938.1394.4381.2628.7577.681.9175 1.1689-.1392.0376-.2783.0483-.4123.0483z" fill="currentColor"/></svg>
