<svg fill="none" viewBox="0 0 20 20" xmlns="http://www.w3.org/2000/svg"><path d="m14.7660485 2.56204547c-.0789273 0-.1578547-.01973185-.2269162-.05919554-1.894257-.97672626-3.532-1.39109498-5.49531846-1.39109498-1.95345253 0-3.80824585.46369833-5.49531849 1.39109498-.23678212.12825699-.53275978.03946369-.67088269-.19731843-.12825698-.23678213-.03946368-.54262571.19731844-.67088269 1.83506147-.99645811 3.84770954-1.50948605 5.96888274-1.50948605 2.10144136 0 3.93650286.46369833 5.94915086 1.49962013.2466481.12825698.3354414.42423464.2071844.66101676-.0887933.1775866-.256514.27624582-.4341006.27624582zm-14.11813418 5.17960898c-.09865922 0-.19731844-.02959776-.28611174-.08879329-.2269162-.15785475-.27624581-.46369833-.11839106-.69061454.97672627-1.38122906 2.21983242-2.46648047 3.69972071-3.22615645 3.09789947-1.59827935 7.06400007-1.60814527 10.17176547-.00986592 1.4798883.75967598 2.7229944 1.83506147 3.6997207 3.20642461.1578547.21705028.1085251.53275978-.1183911.69061453s-.5327598.10852514-.6906145-.11839106c-.887933-1.24310616-2.0126481-2.21983243-3.3445475-2.90058104-2.8315196-1.45029051-6.45231293-1.45029051-9.27396659.00986593-1.34176537.69061453-2.46648047 1.67720672-3.35441344 2.92031287-.07892737.13812291-.2269162.20718436-.38477095.20718436zm6.16620117 11.90816775c-.12825698 0-.25651396-.0493296-.34530726-.1479889-.85833521-.8583352-1.32203353-1.4108268-1.9830503-2.6046033-.68074861-1.2135084-1.0359218-2.6933967-1.0359218-4.2818101 0-2.93017884 2.50594416-5.31773193 5.58411179-5.31773193 3.07816758 0 5.58411178 2.38755309 5.58411178 5.31773193 0 .2762458-.2170503.4932961-.4932961.4932961s-.4932961-.2170503-.4932961-.4932961c0-2.3875531-2.0619777-4.33113974-4.59751958-4.33113974-2.53554193 0-4.5975196 1.94358664-4.5975196 4.33113974 0 1.4206927.3157095 2.7328603.91753074 3.7983799.631419 1.134581 1.06551956 1.6180112 1.82519554 2.3875531.18745252.1973184.18745252.503162 0 .7004804-.10852514.0986593-.23678212.1479889-.36503911.1479889zm7.07386601-1.8251956c-1.1740447 0-2.2099665-.2959776-3.0584358-.878067-1.47002236-.9964581-2.34808941-2.6144693-2.34808941-4.3311397 0-.2762459.21705028-.4932961.4932961-.4932961.27624581 0 .49329609.2170502.49329609.4932961 0 1.3910949.71034642 2.7032626 1.91398882 3.5122682.7004805.4735642 1.519352.7004804 2.5059442.7004804.2367821 0 .631419-.0295978 1.0260559-.0986592.2663798-.0493296.5228938.128257.5722234.4045028.0493296.2663799-.128257.5228938-.4045028.5722235-.5623575.1085251-1.0556536.118391-1.1937765.118391zm-1.9830503 2.0323799c-.0394637 0-.0887933-.0098659-.128257-.0197318-1.5686816-.4341006-2.59473745-1.01619-3.67012294-2.0718436-1.38122906-1.3713632-2.14090505-3.1965587-2.14090505-5.1500112 0-1.5982794 1.36149722-2.90058107 3.03870394-2.90058107 1.67720675 0 3.03870395 1.30230167 3.03870395 2.90058107 0 1.0556536.9175307 1.9139888 2.0521117 1.9139888 1.1345811 0 2.0521118-.8583352 2.0521118-1.9139888 0-3.71945259-3.2064246-6.73842468-7.15279337-6.73842468-2.80192181 0-5.3670615 1.55881565-6.52137436 3.97596652-.38477096.79913966-.58208939 1.73640226-.58208939 2.76245816 0 .7695419.06906145 1.9830503.66101676 3.5615978.09865922.2565139-.02959776.5426257-.28611173.631419-.25651397.0986592-.54262571-.0394637-.631419-.2861118-.48343018-1.2924357-.7202123-2.5750056-.7202123-3.906905 0-1.1839107.2269162-2.2592961.67088269-3.19655873 1.31216761-2.7525922 4.22261456-4.53832406 7.40930733-4.53832406 4.48899447 0 8.13938557 3.46293858 8.13938557 7.72501679 0 1.5982794-1.3614972 2.9005811-3.038704 2.9005811-1.6772067 0-3.0387039-1.3023017-3.0387039-2.9005811 0-1.0556536-.9175307-1.9139888-2.05211175-1.9139888-1.13458101 0-2.05211175.8583352-2.05211175 1.9139888 0 1.6870727.65115084 3.2656202 1.84492739 4.4495308.93726258.9273967 1.83506151 1.4404246 3.22615641 1.8251956.2663799.0690614.4143688.3453072.3453073.6018212-.0493296.2269162-.256514.374905-.4636983.374905z" transform="translate(1)" fill="currentColor" /></svg>