<svg fill="none" viewBox="0 0 20 20" xmlns="http://www.w3.org/2000/svg"><path d="m6.81904762 11.4952381c.14285714 0 .27619048-.0095238.40952381-.0285714.44761905 1.0952381 1.52380952 1.8666666 2.77142857 1.8666666 1.247619 0 2.3238095-.7714285 2.7714286-1.8666666.1333333.0190476.2761904.0285714.4095238.0285714 1.647619 0 2.9904762-1.3428571 2.9904762-2.9904762 0-.67619047-.2380953-1.32380952-.6380953-1.83809523.4095238-.51428572.6380953-1.16190477.6380953-1.83809524 0-1.64761905-1.3428572-2.99047619-2.9904762-2.99047619-.1428572 0-.2761905.00952381-.4095238.02857143-.4476191-1.0952381-1.5238096-1.86666667-2.7714286-1.86666667-1.24761905 0-2.32380952.77142857-2.77142857 1.86666667-.13333333-.01904762-.27619048-.02857143-.40952381-.02857143-1.64761905 0-2.99047619 1.34285714-2.99047619 2.99047619 0 .67619047.23809524 1.32380952.63809524 1.83809524-.40952381.51428571-.64761905 1.16190476-.64761905 1.83809523 0 1.6476191 1.34285714 2.9904762 3 2.9904762zm3.18095238-.0666667c-.59047619 0-1.06666667-.4666666-1.08571429-1.047619l.11428572-1.03809526c.3047619.11428572.62857143.18095238.97142857.18095238.3428571 0 .6761905-.06666666.9809524-.18095238l.1047619 1.03809526c-.0190476.5809524-.4952381 1.047619-1.0857143 1.047619zm3.1809524-1.83809521c-.2285714 0-.4380953-.06666667-.6095238-.19047619l-.7714286-.54285714c.5238095-.42857143.8952381-1.03809524 1.0095238-1.74285715l.8380952.4c.3809524.18095239.6285715.56190477.6285715.98095239 0 .6095238-.4952381 1.09523809-1.0952381 1.09523809zm-.6190476-5.65714286c.1904762-.12380952.4-.19047619.6190476-.19047619.6 0 1.0857143.48571429 1.0857143 1.08571429 0 .41904762-.2380953.79047619-.6285715.98095238l-.8380952.4c-.1142857-.70476191-.4857143-1.31428571-1.0190476-1.74285714zm-2.5619048-2.02857143c.5904762 0 1.0666667.46666667 1.0857143 1.04761905l-.1047619 1.03809524c-.3047619-.11428571-.6380953-.18095238-.9809524-.18095238-.34285714 0-.66666667.06666667-.97142857.18095238l-.11428572-1.03809524c.01904762-.58095238.4952381-1.04761905 1.08571429-1.04761905zm-3.18095238 1.83809524c.22857143 0 .43809524.06666667.60952381.19047619l.77142857.53333334c-.52380952.42857143-.8952381 1.03809523-1.00952381 1.74285714l-.83809524-.4c-.38095238-.19047619-.62857143-.56190476-.62857143-.98095238 0-.6.4952381-1.08571429 1.0952381-1.08571429zm-.46666667 3.78095238.83809524-.4c.11428571.70476191.48571429 1.31428572 1.01904762 1.74285715l-.77142857.52380952c-.19047619.12380952-.4.19047619-.61904762.19047619-.6 0-1.08571429-.48571428-1.08571429-1.08571428-.00952381-.40952381.23809524-.78095239.61904762-.97142858zm3.64761905 12.47619048c4.7333333 0 8.5714286-3.8380952 8.5714286-8.5714286-4.7333334 0-8.5714286 3.8380953-8.5714286 8.5714286zm2.3238095-2.3238095c.6761905-1.8095238 2.1142857-3.2571429 3.9238095-3.9238095-.6761904 1.8095238-2.1142857 3.247619-3.9238095 3.9238095zm-10.89523807-6.2476191c0 4.7333334 3.83809524 8.5714286 8.57142857 8.5714286 0-4.7333333-3.83809524-8.5714286-8.57142857-8.5714286zm2.32380952 2.3238096c1.80952381.6761904 3.25714286 2.1142857 3.92380953 3.9238095-1.80952381-.6761905-3.24761905-2.1142857-3.92380953-3.9238095z" fill="currentColor" /></svg>