<svg fill="none" viewBox="0 0 24 24" xmlns="http://www.w3.org/2000/svg"><g fill="currentColor"><path d="m17.7646 7.89213c-.096.53182-.5444.96979-1.1209 1.06364l-.4164.06257 1.2491 2.28376c.2242.4066.2242.9072-.032 1.3452-.2563.4066-.7046.6569-1.185.6569-.2563 0-.4805-.0626-.7046-.1877l-3.491-2.0022-3.39495 2.0022c-.22419.1251-.48041.1877-.7046.1877-.48041 0-.89677-.2503-1.18501-.6257-.25622-.3754-.28825-.8759-.09609-1.2826l1.12096-2.37756-.73663-.1877c-.44838-.12514-.80068-.43797-.96082-.84466-1.88962 1.3452-3.10666 3.34732-3.10666 5.59982 0 4.0981 4.03546 7.4142 8.9997 7.4142 4.9643 0 8.9997-3.3161 8.9997-7.4142.032-2.2837-1.2491-4.34847-3.2348-5.69367z"/><path d="m7.35566 7.70438 1.92165.46925c.09608.03129.16014.15642.12811.25027l-1.6334 3.4725c-.06406.1564.09608.3128.25622.219l3.90736-2.31501c.064-.03129.1281-.03129.1922 0l4.0034 2.31501c.1601.0938.3523-.0939.2562-.2503l-1.9216-3.50377c-.0641-.09385 0-.25027.1281-.25027l1.7935-.31283c.1922-.03129.1922-.31284.032-.34412-.8967-.25027-2.4341-.65696-3.6511-.81338.0961-1.12621.4804-2.62783.7687-3.25351.2242-.50053-1.5694-.53182-1.7616 0-.1601.46926-.4483 2.03345-.5444 3.22223-1.24909.12513-2.94654.50054-3.90737.75081-.12811.06256-.12811.31283.03203.34412z"/></g></svg>
