<svg fill="none" viewBox="0 0 24 24" xmlns="http://www.w3.org/2000/svg"><path d="m11.5 4c-4.692 0-8.5 3.808-8.5 8.5s3.808 8.5 8.5 8.5h4.25v-1.7h-4.25c-3.689 0-6.8-3.111-6.8-6.8s3.111-6.8 6.8-6.8 6.8 3.111 6.8 6.8v1.2155c0 .6715-.6035 1.3345-1.275 1.3345s-1.275-.663-1.275-1.3345v-1.2155c0-2.346-1.904-4.25-4.25-4.25s-4.25 1.904-4.25 4.25 1.904 4.25 4.25 4.25c1.173 0 2.244-.476 3.009-1.2495.5525.7565 1.5045 1.2495 2.516 1.2495 1.6745 0 2.975-1.36 2.975-3.0345v-1.2155c0-4.692-3.808-8.5-8.5-8.5zm0 11.05c-1.411 0-2.55-1.139-2.55-2.55s1.139-2.55 2.55-2.55 2.55 1.139 2.55 2.55-1.139 2.55-2.55 2.55z" fill="currentColor"/></svg>
