<svg fill="none" viewBox="0 0 24 24" xmlns="http://www.w3.org/2000/svg"><path d="m12.0041 8.15789c2.2592 0 4.0928 1.76843 4.0928 3.94741 0 .5131-.1065.9947-.2947 1.4447l2.3902 2.3053c1.236-.9948 2.2101-2.2816 2.8076-3.75-1.4161-3.46583-4.9113-5.92109-9.0041-5.92109-1.146 0-2.24283.19737-3.25784.55263l1.76804 1.70527c.4666-.18158.9659-.28422 1.498-.28422zm-8.18555-2.15526 1.86631 1.8.37653.36316c-1.3588 1.01842-2.42292 2.37631-3.06139 3.93951 1.4161 3.4658 4.91132 5.921 9.0041 5.921 1.2688 0 2.4802-.2368 3.5853-.6631l.3438.3315 2.3983 2.3053 1.0396-1.0026-14.51298-13.9974zm4.52661 4.36577 1.26876 1.2237c-.04093.1658-.06549.3395-.06549.5132 0 1.3105 1.09687 2.3684 2.45567 2.3684.1801 0 .3602-.0237.5321-.0632l1.2687 1.2237c-.5484.2605-1.1541.4184-1.8008.4184-2.25922 0-4.09278-1.7684-4.09278-3.9473 0-.6237.16371-1.2079.43384-1.7369zm3.52794-.61577 2.5785 2.48687.0163-.1263c0-1.3106-1.0968-2.36846-2.4556-2.36846z" fill="currentColor"/></svg>
