<svg fill="none" viewBox="0 0 20 20" xmlns="http://www.w3.org/2000/svg"><path d="m1.92731278 4.32703003c.77092511-.7897664 1.54185022-1.50166852 1.88325991-1.3570634.55066079.22246941 0 1.14571746-.33039648 1.69076752-.2753304.46718576-3.14977973 4.32703003-3.14977973 7.01890985 0 1.4238043.52863436 2.6028922 1.47577092 3.3147943.82599119.6229143 1.91629956.8120133 2.90748899.5116796 1.17841409-.3448276 2.14757709-1.5572859 3.37004405-3.0812013 1.33259912-1.6573971 3.11674006-3.82647389 4.49339206-3.82647389 1.7951542 0 1.8171806 1.12347053 1.938326 1.99110119-4.1629956.7119022-5.92511013 4.0823137-5.92511013 5.9733037s1.58590313 3.4371524 3.53524233 3.4371524c1.7951541 0 4.7246696-1.4794216 5.1651982-6.785317h2.7092511v-2.7808676h-2.7202643c-.1651983-1.83537269-1.2004405-4.67185767-4.438326-4.67185767-2.4779736 0-4.60352424 2.12458287-5.44052864 3.15906563-.63876652.81201335-2.26872247 2.75862064-2.52202643 3.02558394-.2753304.3337042-.74889868.9343716-1.22246696.9343716-.49559472 0-.79295155-.9232481-.39647578-2.1357064.38546256-1.21245826 1.54185022-3.18131254 2.03744494-3.9154616.85903084-1.26807564 1.43171806-2.13570634 1.43171806-3.64849833 0-2.4137931-1.8061674-3.18131257-2.76431718-3.18131257-1.45374449 0-2.72026432 1.11234705-2.99559471 1.39043382-.39647577.40044493-.72687225.73414905-.969163 1.03448275zm10.23127752 12.96996667c-.3414097 0-.814978-.2892103-.814978-.8008899 0-.6674082.8039648-2.4471635 3.160793-3.0700779-.3303965 2.9922136-1.5748899 3.8709678-2.345815 3.8709678z" fill="currentColor" /></svg>