<svg fill="none" viewBox="0 0 24 24" xmlns="http://www.w3.org/2000/svg"><path d="m12 3c-4.9725 0-9 4.13206-9 9.2285 0 4.0782 2.5785 7.5366 6.15375 8.7556.45.0869.615-.1985.615-.4438 0-.2192-.0075-.7998-.01125-1.5688-2.5035.5568-3.0315-1.2382-3.0315-1.2382-.4095-1.0651-1.00125-1.3497-1.00125-1.3497-.81525-.5721.063-.5606.063-.5606.90375.0646 1.3785.9505 1.3785.9505.8025 1.4112 2.10675 1.0036 2.62125.7676.081-.5968.3128-1.0036.57-1.2344-1.99875-.2307-4.0995-1.0243-4.0995-4.5604 0-1.0074.34875-1.8303.92625-2.4763-.10125-.23302-.405-1.17125.07875-2.44248 0 0 .75375-.24763 2.475.94593.72-.20534 1.485-.30685 2.25-.31147.765.00462 1.53.10613 2.25.31147 1.71-1.19356 2.4638-.94593 2.4638-.94593.4837 1.27123.18 2.20946.09 2.44248.5737.646.9225 1.4689.9225 2.4763 0 3.5453-2.1038 4.3259-4.1063 4.5527.315.2769.6075.8429.6075 1.7073 0 1.2351-.0112 2.2272-.0112 2.5271 0 .2422.1575.5306.6187.4383 3.6008-1.2104 6.177-4.6711 6.177-8.7432 0-5.09644-4.0297-9.2285-9-9.2285" fill="currentColor"/></svg>
