<svg fill="none" viewBox="0 0 20 20" xmlns="http://www.w3.org/2000/svg"><path d="m14.5 0c-1.74 0-3.41.88283379-4.5 2.27792916-1.09-1.39509537-2.76-2.27792916-4.5-2.27792916-3.08 0-5.5 2.63760218-5.5 5.99455041 0 4.11989099 3.4 7.47683919 8.55 12.57765669l1.45 1.4277929 1.45-1.4386921c5.15-5.0899183 8.55-8.4468665 8.55-12.56675749 0-3.35694823-2.42-5.99455041-5.5-5.99455041zm-4.4 16.9482289-.1.1089918-.1-.1089918c-4.76-4.6975477-7.9-7.80381473-7.9-10.95367849 0-2.17983651 1.5-3.8147139 3.5-3.8147139 1.54 0 3.04 1.07901908 3.57 2.57220709h1.87c.52-1.49318801 2.02-2.57220709 3.56-2.57220709 2 0 3.5 1.63487739 3.5 3.8147139 0 3.14986376-3.14 6.25613079-7.9 10.95367849z" fill="currentColor" /></svg>