<svg fill="none" viewBox="0 0 24 24" xmlns="http://www.w3.org/2000/svg"><g fill="currentColor"><path d="m6 22h8v-1.5h-8z"/><path d="m13.1758 2.46347c-2.1834 3.59813-4.63759 7.27765-6.46611 10.71183-.08879.1668-.0675.1566-.05735.2834.12017.985.57349 2.8924.57349 2.8924s-.82048 1.913-1.22583 2.6489h2.4c.27105-.3982.5519-1.0806.78287-1.4935.28752-.0817 1.90663-.5383 2.75273-.9084.1162-.0508.144-.0958.2151-.1962 2.0301-3.6693 3.8383-7.45927 5.7349-11.1769.2357-.55654.1087-1.07052-.3943-1.35894-.9591-.56757-1.9166-1.13821-2.8746-1.70778-.5347-.27141-1.0654-.20883-1.4409.30519zm-5.42348 11.82773c-.03001-.1268.10567-.2255.21813-.1598l2.79925 1.6362c.1099.0643.0947.2271-.0257.2686-.584.2016-1.17592.3838-1.53469.4923-.03989.0121-.08273.0069-.11871-.0142l-.91474-.5345c-.03871-.0226-.0652-.0613-.07265-.1055-.09848-.5844-.23671-1.1009-.35089-1.5831z"/></g></svg>
