<svg fill="none" viewBox="0 0 24 24" xmlns="http://www.w3.org/2000/svg"><g stroke="currentColor" stroke-linecap="round" stroke-linejoin="round" stroke-width="1.5" fill="none"><path d="m10.389 3.26543 3.2192-.00042c.0835-.00006.1661.01633.2432.04823s.1472.07869.2062.13769c.059.05899.1057.12904.1376.20614.0319.07709.0483.15973.0483.24317l.0017 3.85454-2.2452 2.24522-2.24463-2.24463.0005-3.85679c.00052-.16774.0674-.32849.18603-.44712.1186-.11863.2794-.18551.4471-.18603z"/><path d="m13.611 20.7346-3.2192.0004c-.0835 0-.1661-.0163-.2432-.0482s-.1472-.0787-.20616-.1377c-.059-.059-.10578-.1291-.13769-.2062-.0319-.0771-.04829-.1597-.04823-.2431l-.00174-3.8546 2.24522-2.2452 2.2446 2.2446-.0005 3.8568c-.0005.1678-.0674.3285-.186.4471-.1186.1187-.2794.1855-.4471.1861z"/><path d="m20.7346 10.389.0004 3.2192c0 .0835-.0163.1661-.0482.2432s-.0787.1472-.1377.2062-.1291.1057-.2062.1376-.1597.0483-.2431.0483l-3.8546.0017-2.2452-2.2452 2.2446-2.24463 3.8568.0005c.1678.00052.3285.0674.4471.18603.1187.1186.1855.2794.1861.4471z"/><path d="m3.26543 13.611-.00042-3.2192c-.00006-.0835.01633-.1661.04823-.2432s.07869-.1472.13769-.20616c.05899-.059.12904-.10578.20614-.13769.07709-.0319.15973-.04829.24317-.04823l3.85454-.00174 2.24522 2.24522-2.24463 2.2446-3.85679-.0005c-.16774-.0005-.32849-.0674-.44712-.186s-.18551-.2794-.18603-.4471z"/></g></svg>
