<svg fill="none" viewBox="0 0 20 20" xmlns="http://www.w3.org/2000/svg"><path d="m16.6666667 15c.9166666 0 1.6583333-.75 1.6583333-1.6666667l.0083333-9.16666663c0-.91666667-.75-1.66666667-1.6666666-1.66666667h-13.33333337c-.91666666 0-1.66666666.75-1.66666666 1.66666667v9.16666663c0 .9166667.75 1.6666667 1.66666666 1.6666667h-3.33333333c0 .9166667.75 1.6666667 1.66666667 1.6666667h16.66666663c.9166667 0 1.6666667-.75 1.6666667-1.6666667zm-13.33333337-10.83333333h13.33333337v9.16666663h-13.33333337zm6.66666667 11.66666663c-.45833333 0-.83333333-.375-.83333333-.8333333s.375-.8333333.83333333-.8333333c.4583333 0 .8333333.375.8333333.8333333s-.375.8333333-.8333333.8333333z" fill="currentColor" /></svg>