<svg fill="none" viewBox="0 0 24 24" xmlns="http://www.w3.org/2000/svg"><path d="m19.6976 16.8149-4.5045 2.7755c-.1023.0623-.219.0952-.338.0952-.1189 0-.2356-.0329-.3379-.0952l-3.2947-2.0192c.2929-.5543.4809-1.1606.5542-1.7867l3.2233 2.0124v-9.50002l-5.46036-3.34376v6.29688c-.4582-.4688-1.23302-.6921-2.00388-.7355-.09631 0-.19431-.0087-.29399-.0087-.09969 0-.19938 0-.29569.0087-.85883.0493-1.7495.4304-2.44608.9485v-4.963c-.0002-.11068.02756-.21953.08057-.31591s.12945-.177.22187-.23399l4.56823-2.85494c.10228-.06229.21901-.09516.33793-.09516s.23564.03287.3379.09516l4.807 2.96287 4.6025-2.83623c.0546-.03341.1169-.05136.1804-.05203.0636-.00067.1263.01598.1815.04824.0553.03225.1013.07897.1333.1354s.0488.12055.0488.18584v12.72755c-.0001.1103-.028.2188-.081.3149-.053.096-.1293.1764-.2214.2332zm-10.15796.8309-2.01909 2.2291c-.03574.0395-.07901.071-.12712.0925s-.10003.0326-.15251.0326-.10439-.0111-.15251-.0326c-.04811-.0215-.09138-.053-.12712-.0925l-2.01908-2.2291c-.46748-.5034-.77835-1.1384-.893-1.8239-.11465-.6856-.02788-1.3906.24925-2.0254.24163-.5429.62326-1.0077 1.10363-1.344.48036-.3364 1.04116-.5314 1.62172-.5641h.21796.21795c.58056.0327 1.14136.2277 1.62172.5641.48037.3363.862.8011 1.10366 1.344.2769.6349.3634 1.3401.2484 2.0256-.1149.6856-.4261 1.3205-.89386 1.8237zm-.81102-2.4164c0-.3019-.0872-.5971-.25058-.8481s-.39559-.4467-.66728-.5622c-.27169-.1156-.57064-.1458-.85907-.0869-.28842.0589-.55335.2043-.76129.4178s-.34955.4855-.40692.7816-.02793.603.08461.882c.11254.2789.30311.5173.54762.6851.24451.1677.53198.2572.82606.2572.19539 0 .38888-.0395.56938-.1163.18051-.0769.34449-.1895.48258-.3314s.24757-.3104.3222-.4958c.07462-.1854.11291-.3841.11269-.5847z" fill="currentColor"/></svg>
