<svg fill="none" viewBox="0 0 24 24" xmlns="http://www.w3.org/2000/svg"><g fill="currentColor"><path clip-rule="evenodd" d="m13 10.5h-8c-.27614 0-.5.2239-.5.5v8c0 .2761.22386.5.5.5h8c.2761 0 .5-.2239.5-.5v-8c0-.2761-.2239-.5-.5-.5zm-8-1.5h8c1.1046 0 2 .89543 2 2v8c0 1.1046-.8954 2-2 2h-8c-1.10457 0-2-.8954-2-2v-8c0-1.10457.89543-2 2-2z" fill-rule="evenodd"/><path d="m7.67708 16.8438v-3.6875l3.07292 1.8437z"/><path clip-rule="evenodd" d="m9.03508 5c0-1.10457.89543-2 2.00002-2h7.9649c1.1046 0 2 .89543 2 2v8c0 1.1046-.8954 2-2 2h-1.9961v-1.5h1.9961c.2761 0 .5-.2239.5-.5v-2.838l-1.728-1.59293-.9927 1.11671c-.1351.15198-.3261.24259-.5292.25107-.2032.00848-.4011-.06589-.5484-.20609l-2.0421-1.9437-2.3585 2.55494-1.1022-1.01737 2.875-3.11459c.1363-.14762.3261-.2344.5269-.24089.2008-.0065.3958.06784.5413.20634l2.0317 1.93375.9844-1.10751c.1337-.15043.3223-.2408.5233-.2508s.3976.06121.5456.19762l1.2729 1.17337v-3.12192c0-.27614-.2239-.5-.5-.5h-7.9649c-.2762 0-.5.22386-.5.5v1.98438h-1.50002z" fill-rule="evenodd"/></g></svg>