<svg viewBox="0 0 24 24" xmlns="http://www.w3.org/2000/svg">
    <path d="m8.5 9.5c0-.82843-.67157-1.5-1.5-1.5s-1.5.67157-1.5 1.5c0 .8284.67157 1.5 1.5 1.5s1.5-.6716 1.5-1.5z"/>
    <path d="m13.5 14.5c0-.8284-.6716-1.5-1.5-1.5s-1.5.6716-1.5 1.5.6716 1.5 1.5 1.5 1.5-.6716 1.5-1.5z"/>
    <path d="m18.5 9.5c0-.82843-.6716-1.5-1.5-1.5s-1.5.67157-1.5 1.5c0 .8284.6716 1.5 1.5 1.5s1.5-.6716 1.5-1.5z"/>
    <path d="m16.5 5h1v13.825h-1z"/>
    <path d="m6.5 5h1v14h-1z"/>
    <path d="m11.5 5h1v14h-1z"/>
</svg>
