<svg fill="none" viewBox="0 0 20 20" xmlns="http://www.w3.org/2000/svg"><path d="m15.8333333 0h-11.66666663c-1.15 0-2.08333334.93333333-2.08333334 2.08333333v15.83333337c0 1.15.93333334 2.0833333 2.08333334 2.0833333h11.66666663c1.15 0 2.0833334-.9333333 2.0833334-2.0833333v-15.83333337c0-1.15-.9333334-2.08333333-2.0833334-2.08333333zm-5.8333333 19.1666667c-.69166667 0-1.25-.5583334-1.25-1.25 0-.6916667.55833333-1.25 1.25-1.25.6916667 0 1.25.5583333 1.25 1.25 0 .6916666-.5583333 1.25-1.25 1.25zm6.25-3.3333334h-12.5v-13.3333333h12.5z" fill="currentColor" /></svg>