<svg fill="none" viewBox="0 0 24 24" xmlns="http://www.w3.org/2000/svg"><path d="m20.9644 6.21958c-.6699.29445-1.3852.49504-2.1383.58663.7675-.46249 1.3579-1.19144 1.6372-2.06117-.7198.4201-1.5177.72591-2.3669.89623-.6783-.72592-1.6449-1.18009-2.7183-1.18009-2.0566 0-3.7241 1.66756-3.7241 3.72192 0 .29521.034.57907.0961.85082-3.09594-.1461-5.83988-1.63275-7.67624-3.88013-.32322.54652-.50413 1.1816-.50413 1.87345 0 1.29439.65854 2.43208 1.6562 3.10046-.61085-.0197-1.18538-.18772-1.68648-.46627v.04617c0 1.8053 1.28152 3.3109 2.98692 3.6538-.31262.084-.64265.1294-.981.1294-.23769 0-.46553-.0227-.69337-.0651.47764 1.4784 1.85074 2.5563 3.485 2.5865-1.27168.9985-2.88322 1.5934-4.61891 1.5934-.29521 0-.58966-.0174-.88563-.0507 1.65696 1.0552 3.60913 1.6721 5.72027 1.6721 6.85347 0 10.59657-5.6741 10.59657-10.5867 0-.1582 0-.31792-.0114-.47688.7274-.52154 1.3625-1.18084 1.8621-1.9287z" fill="currentColor"/></svg>