<svg fill="none" viewBox="0 0 20 20" xmlns="http://www.w3.org/2000/svg"><path d="m11.925 1.66666667.3416667 2.06666666c-.7083334-.25833333-1.4666667-.4-2.2666667-.4-.79166667 0-1.55833333.14166667-2.25833333.39166667l.34166666-2.05833333zm.3416667 14.60000003-.3416667 2.0666666h-3.84166667l-.34166666-2.0583333c.7.25 1.46666666.3916667 2.25833333.3916667.8 0 1.5583333-.1416667 2.2666667-.4zm1.0666666-16.2666667h-6.66666663l-.79166667 4.775c-1.55 1.21666667-2.54166667 3.1-2.54166667 5.225s.99166667 4.0083333 2.54166667 5.225l.79166667 4.775h6.66666663l.8-4.775c1.5416667-1.2166667 2.5333334-3.1083333 2.5333334-5.225 0-2.11666667-.9916667-4.00833333-2.5333334-5.225zm-3.3333333 15c-2.75833333 0-5-2.2416667-5-5 0-2.75833333 2.24166667-5 5-5 2.7583333 0 5 2.24166667 5 5 0 2.7583333-2.2416667 5-5 5z" fill="currentColor" /></svg>