<svg viewBox="0 0 24 24" xmlns="http://www.w3.org/2000/svg"><path fill="#fff" d="m20.6537861 17.3118312c-.1339213.9203528-2.0126188 3.3081412-2.8769336 3.6538671-.2953867.1177748-.5803257.0892809-.807327-.0854817-.1462687-.1139755-.2982361-.3466757-2.3241521-3.6348712l-.6012212-.98019c-.2317503-.3514247-.1890095-.8139756.0987789-1.1672999.2820895-.3409769.695251-.4691994 1.0552239-.3324287.0189959.0113975 1.5158752.5043419 1.5158752.5043419 3.4078699 1.1198101 3.518996 1.1625509 3.6633651 1.2708277.2156038.1766622.3153325.4511534.270692.7721846h.0056988zm-6.8299866-5.0025782c-.2412484-.3666214-.2374492-.7987788.0113975-1.0970149l.9478969-1.29077348c2.0791046-2.83419276 2.1949797-2.98331081 2.3355496-3.08208965.2431479-.1624152.541384-.17001357.8272728-.03039348.8253731.40081412 2.4913162 2.8769336 2.5919946 3.82673011v.0322931c.0275441.3238806-.0997286.5869742-.3286296.7446404-.1557666.0997287-.2982361.1576662-4.172456 1.0979648-.6126187.1557666-.9535957.2412483-1.1540027.312483l.0275441-.0284939c-.3837178.1139756-.8111263-.0702849-1.0533244-.4549525zm-2.3782905-1.4683854c-.1852103.0579376-.7493894.2327002-1.4427409-.89090909 0 0-4.6834465-7.36947104-4.7936229-7.59647241-.06648575-.25644505.01424695-.54518319.24219811-.77883313.69715063-.72279513 4.48019009-1.78086844 5.47082789-1.53962012.3229308.08358209.5451831.28588874.6230665.57367708.0569877.31818183.517639 7.15766643.5841248 8.68968818.0626866 1.31071919-.4986432 1.48643149-.6838535 1.54246949zm.6183175 7.4967438c-.0104477 3.584532-.0180461 3.7042064-.0769335 3.8742199-.0997286.2668928-.3286296.4454546-.6468114.5033922-.9118046.1557666-3.7678427-.8985075-4.36336511-1.6051561-.11397558-.1557666-.18521032-.3115333-.19945727-.4682497-.01519674-.1139756 0-.2279511.04274085-.3286296.07123473-.1852103.17096337-.3276798 2.73541392-3.3337857l.75413841-.8966079c.2573949-.3276798.7123474-.4274084 1.138806-.2573948.4141113.1567164.6705563.5128901.6420624.8975577v1.5956581zm-7.77218472-2.2928087c-.28018996-.009498-.53188604-.177612-.67910449-.4559024-.10542742-.2042062-.17951154-.541384-.22605157-.9516961-.13012212-1.2356852.0275441-3.1001357.39796473-3.691859.17381276-.270692.42740843-.4141112.70759839-.4046133.18521032 0 .35047491.0579376 4.0166894 1.5671643l1.07327005.4264586c.38371779.1424695.62116691.541384.59837181.9982361-.0284939.4416554-.28303937.7826323-.65915879.8833108l-1.52442338.4843962c-3.40976944 1.0970149-3.52279522 1.1255088-3.70230676 1.1112619z"/></svg>