<svg viewBox="0 0 14 14" xmlns="http://www.w3.org/2000/svg"><path d="M6.998 0C3.139 0 0 3.14 0 6.998s3.14 6.997 6.998 6.997 6.997-3.139 6.997-6.997S10.856 0 6.998 0zm-.166 8.722c-.174.187-.36.353-.658.499-.3.145-.676.218-1.133.218-.58 0-1.068-.18-1.435-.541-.368-.36-.566-.829-.566-1.405v-.99c0-.574.192-1.042.545-1.404.353-.362.815-.543 1.371-.543.578 0 1.025.141 1.332.422.308.282.467.658.473 1.117l-.005.026H5.86c-.017-.274-.098-.458-.241-.605-.143-.147-.353-.223-.63-.223a.838.838 0 00-.695.335c-.178.225-.26.513-.26.867v.996c0 .36.085.653.27.878.184.224.43.337.742.337.222 0 .406-.023.541-.069.135-.045.201-.101.313-.169V7.6h-.883v-.659h1.815v1.78zm4.116-3.372H8.585v1.318h2.027v.708H8.585v1.977h-.932V4.641h3.295z"/></svg>