<svg viewBox="0 0 18 18" xmlns="http://www.w3.org/2000/svg"><path d="M.295 17.802c1.52 1.368 11.712-4.7 13.22-7.255.725-1.227-.13-3.028-1.528-4.467 1.59-1.057 2.988 2.233 4.316 1.54.604-.323.996-1.319.704-1.933-.523-1.086-2.264-1.086-3.44-1.217.834-.201 2.837-1.057 2.877-2.264.04-.926-1.137-1.982-2.063-1.871-1.217.14-1.66 1.891-2.073 3.018-.05-.714-.2-2.284-.986-2.968-1.046-.916-2.304-.05-2.334 1.056-.04 1.339 2.838 2.083 1.932 3.693-1.53-1.177-3.33-1.821-4.488-1.147-.493.312-1.056.916-1.64 1.7.896.946 2.134 2.083 3.11 2.737.2.141.261.423.11.624a.444.444 0 01-.624.12c-.996-.673-2.213-1.79-3.119-2.726a26.985 26.985 0 00-1.348 2.244c.855.865 1.942 1.841 2.807 2.425a.45.45 0 01.11.623.454.454 0 01-.633.121c-.855-.583-1.871-1.489-2.727-2.334C.698 13.032-.61 16.997.295 17.8z"/></svg>