<svg width="180" height="180" viewBox="0 0 180 180" fill="none" xmlns="http://www.w3.org/2000/svg">
	<path d="M47.1165 0.828568L132.648 0.813968C148.826 0.811207 154.7 2.49845 160.63 5.66761C166.56 8.83677 171.224 13.4881 174.415 19.4152C177.607 25.3424 179.32 31.2218 179.398 47.4361L179.811 133.161C179.89 149.376 178.233 155.256 175.099 161.184C171.965 167.112 167.345 171.765 161.446 174.936C155.547 178.107 149.689 179.797 133.511 179.799L47.9797 179.814C31.802 179.817 25.9275 178.129 19.9979 174.96C14.0682 171.791 9.40422 167.14 6.21262 161.213C3.02102 155.286 1.30824 149.406 1.23004 133.192L0.816612 47.4666C0.738416 31.2523 2.39449 25.3723 5.52892 19.4441C8.66334 13.5158 13.2825 8.86293 19.1815 5.69175C25.0806 2.52057 30.9388 0.831329 47.1165 0.828568V0.828568ZM40.5917 30.6473C35.0996 30.6473 30.6473 35.0996 30.6473 40.5917V140.036C30.6473 145.528 35.0996 149.981 40.5917 149.981H70.4251C75.9172 149.981 80.3695 145.528 80.3695 140.036V40.5917C80.3695 35.0996 75.9172 30.6473 70.4251 30.6473H40.5917ZM110.203 100.258C104.711 100.258 100.258 104.711 100.258 110.203V140.036C100.258 145.528 104.711 149.981 110.203 149.981H140.036C145.528 149.981 149.981 145.528 149.981 140.036V110.203C149.981 104.711 145.528 100.258 140.036 100.258H110.203ZM110.203 30.6473C104.711 30.6473 100.258 35.0996 100.258 40.5917V70.4251C100.258 75.9172 104.711 80.3695 110.203 80.3695H140.036C145.528 80.3695 149.981 75.9172 149.981 70.4251V40.5917C149.981 35.0996 145.528 30.6473 140.036 30.6473H110.203Z" fill="black"/>
</svg>
