<svg viewBox="0 0 18 18" xmlns="http://www.w3.org/2000/svg"><path d="M17.833 4.901c-.105.049-2.345.917-3.977 2.122a9.592 9.592 0 00-2.93-2.556c-.817-1.47.334-2.797.334-2.797-2.344-.699-4.102.893-5.023 2.002-3.453.868-6.09 4.895-6.09 5.69 0 .627 3.076 5.474 6.97 5.811.523.675 1.59 1.64 2.992 1.23 0 0-.67-.747-.23-1.591a8.58 8.58 0 004.102-3.038c1.612 1.157 3.747 2 3.872 2.05-.041-.146-.962-3.328-.962-4.462-.021-1.663.92-4.364.942-4.46zM3.997 9.048c-.546 0-1-.454-1-1 0-.545.454-1 1-1s1 .455 1 1c0 .564-.455 1-1 1z"/></svg>