<svg fill="none" viewBox="0 0 24 24" xmlns="http://www.w3.org/2000/svg"><path clip-rule="evenodd" d="m19 7c0-.27614-.2239-.5-.5-.5h-13c-.27614 0-.5.22386-.5.5v4.5c0 .2761.22386.5.5.5h13c.2761 0 .5-.2239.5-.5zm-.125 10h-13.75c-.06904 0-.125.056-.125.125v1.75c0 .069.05596.125.125.125h13.75c.069 0 .125-.056.125-.125v-1.75c0-.069-.056-.125-.125-.125zm-13.75-13.5c-.89746 0-1.625.72754-1.625 1.625v6.75c0 .8975.72754 1.625 1.625 1.625h13.75c.8975 0 1.625-.7275 1.625-1.625v-6.75c0-.89746-.7275-1.625-1.625-1.625zm0 12c-.89746 0-1.625.7275-1.625 1.625v1.75c0 .8975.72754 1.625 1.625 1.625h13.75c.8975 0 1.625-.7275 1.625-1.625v-1.75c0-.8975-.7275-1.625-1.625-1.625z" fill="currentColor" fill-rule="evenodd"/></svg>
