<svg fill="none" viewBox="0 0 24 24" xmlns="http://www.w3.org/2000/svg"><g fill="currentColor"><path d="m10.1758 20.4657c0 1.0083.8159 1.8242 1.8242 1.8242s1.8242-.8159 1.8242-1.8242z"/><path d="m12 4.5c2 0 5.5 1.5 5.5 4.78988v6.71012c0 .2761-.2239.5-.5.5h-10.00002c-.27614 0-.5-.2239-.5-.5v-6.71012c0-3.28988 3.5-4.78988 5.50002-4.78988zm0-3c-.7608 0-1.375.76821-1.375 1.52904-3.12502.97096-5.62502 3.47096-5.62501 6.26084v7.08582c0 .2652-.10536.5195-.29289.7071l-1.3506 1.3506c-.12155.1215-.18984.2864-.18984.4583 0 .358.2902.6482.64818.6482h16.37026c.358 0 .6482-.2902.6482-.6482 0-.1719-.0683-.3368-.1898-.4583l-1.3506-1.3506c-.1876-.1876-.2929-.4419-.2929-.7071v-7.08582c0-2.78988-2.5-5.28988-5.625-6.26084 0-.76083-.6142-1.52904-1.375-1.52904z"/></g></svg>
