<svg fill="none" viewBox="0 0 20 20" xmlns="http://www.w3.org/2000/svg"><path d="m18.1818182 7.87545455c-1.0045455 0-1.8181818.81363636-1.8181818 1.81818181v2.72727274h-12.72727276v-2.72727274c0-1.00454545-.81363637-1.81818181-1.81818182-1.81818181-1.00454546 0-1.81818182.81363636-1.81818182 1.81818181v5.14764964c0 1 .81818182 1.8181818 1.81818182 1.8181818h16.36363638c1 0 1.8181818-.8181818 1.8181818-1.8181818v-5.14764964c0-1.00454545-.8136364-1.81818181-1.8181818-1.81818181zm-2.7272727-4.54545455h-10.90909095c-1 0-1.81818182.81818182-1.81818182 1.81818182v1.95909091c1.05454545.37727272 1.81818182 1.37727272 1.81818182 2.55909091v1.84545456h10.90909095v-1.84545456c0-1.18181819.7636363-2.18181819 1.8181818-2.55909091v-1.95909091c0-1-.8181818-1.81818182-1.8181818-1.81818182z" fill="currentColor" /></svg>