<svg xmlns="http://www.w3.org/2000/svg" viewBox="0 0 24 24"><path fill="currentColor" d="m12.11 5.19 1.09.2a7.76 7.76 0 0 1 6.13 5.82l.33 1.35-.15 1.35A7.78 7.78 0 1 1 11 5.29l1.08-.1h.03ZM12.25 0C11 0 10 .34 10 .75c0 .22.29.42.75.56v1a10.78 10.78 0 1 0 11.74 11.94H24c.55 0 1-.84 1-1.87 0-1.03-.45-1.88-1-1.88h-1.75a10.78 10.78 0 0 0-8.5-8.06V1.31c.46-.14.75-.34.75-.56 0-.41-1-.75-2.25-.75Z"/><path fill="currentColor" d="M6.19 11.42v-.41c.8 0 1-.13 1-.67h.52V15h-.56v-3.58h-.96ZM9 14.91c0-1.25 2.42-1.92 2.42-3.29a.769.769 0 0 0-.85-.86c-.7 0-1 .49-1 1.14H9a1.5 1.5 0 0 1 1.55-1.63 1.23 1.23 0 0 1 1.37 1.35c0 1.35-1.9 2.15-2.29 2.87h2.61v.5H9v-.08Zm4.7-3.81h.54c0 .6.43 1 1.11 1 .68 0 1.11-.32 1.11-.9 0-.58-.57-.89-1.18-.89H15v-.5h.25c.53 0 .93-.2.93-.77 0-.57-.34-.76-.87-.76a.83.83 0 0 0-.92.84h-.51a1.32 1.32 0 0 1 1.43-1.33 1.26 1.26 0 0 1 1.41 1.19 1 1 0 0 1-.68 1 1.13 1.13 0 0 1 .96 1.19c0 .84-.66 1.39-1.67 1.39a1.46 1.46 0 0 1-1.63-1.46Zm2.17 5.55h-2.3v-.34l2.35-3.21h.48v3h.75v.5h-.75v1.1h-.53v-1.05Zm0-.5v-2.24l-1.6 2.24h1.6Z"/></svg>