<svg fill="none" viewBox="0 0 24 24" xmlns="http://www.w3.org/2000/svg"><path d="m19.75 8v10.7885c0 1.0833-.8794 1.9615-1.9656 1.9615-3.0519 0-8.97462 0-12.7844 0" stroke="currentColor" stroke-width="1.5" fill="none" /><path clip-rule="evenodd" d="m6 4.5h10c.2761 0 .5.22386.5.5v12c0 .2761-.2239.5-.5.5h-10c-.27614 0-.5-.2239-.5-.5v-12c0-.27614.22386-.5.5-.5zm10-1.5h-10c-1.10457 0-2 .89543-2 2v12c0 1.1046.89543 2 2 2h10c1.1046 0 2-.8954 2-2v-12c0-1.10457-.8954-2-2-2zm-1 3.75h-8v1.5h8zm-8 3.25h8v1.5h-8zm6 3.25h-6v1.5h6z" fill="currentColor" fill-rule="evenodd" /></svg>