<svg fill="none" viewBox="0 0 24 24" xmlns="http://www.w3.org/2000/svg"><path d="m5 3.75h14c.6904 0 1.25.55964 1.25 1.25v14c0 .6904-.5596 1.25-1.25 1.25h-14c-.69036 0-1.25-.5596-1.25-1.25v-14c0-.69036.55964-1.25 1.25-1.25z" stroke="currentColor" stroke-width="1.5" fill="none"/><g fill="currentColor"><path d="m3 5c0-1.10457.89543-2 2-2h14c1.1046 0 2 .89543 2 2v2h-18z"/><path d="m7 10h2v2h-2z"/><path d="m7 14h2v2h-2z"/><path d="m11 10h2v2h-2z"/><path d="m15 10h2v2h-2z"/><path d="m11 14h2v2h-2z"/><path d="m15 14h2v2h-2z"/></g></svg>
