<svg fill="none" viewBox="0 0 20 20" xmlns="http://www.w3.org/2000/svg"><path d="m8.71794872 0c-1.41538462 0-2.56410257 1.14871795-2.56410257 2.56410256h-4.1025641c-1.12820513 0-2.04102564.92307693-2.04102564 2.05128206v3.89743589h.2974359c1.52820513 0 2.76923077 1.24102564 2.76923077 2.76923079 0 1.5282051-1.24102564 2.7692308-2.76923077 2.7692308h-.30769231v3.8974358c0 1.1282052.92307692 2.0512821 2.05128205 2.0512821h3.8974359v-.3076923c0-1.5282051 1.24102564-2.7692308 2.76923077-2.7692308 1.52820508 0 2.76923078 1.2410257 2.76923078 2.7692308v.3076923h3.8974359c1.1282051 0 2.051282-.9230769 2.051282-2.0512821v-4.1025641c1.4153847 0 2.5641026-1.1487179 2.5641026-2.5641025 0-1.41538463-1.1487179-2.56410258-2.5641026-2.56410258v-4.1025641c0-1.12820513-.9230769-2.05128206-2.051282-2.05128206h-4.1025641c0-1.41538461-1.148718-2.56410256-2.56410258-2.56410256z" fill="currentColor" /></svg>