<svg fill="none" viewBox="0 0 24 24" xmlns="http://www.w3.org/2000/svg"><path clip-rule="evenodd" d="m11.9731 4.00028c-4.15965-.00653-7.62297 3.2243-7.94838 7.41482-.32541 4.1905 2.59681 7.9277 6.70658 8.5769v-5.6309h-2.02198v-2.3167h2.02198v-1.7697c-.0901-.83737.1934-1.67177.7735-2.27661.58-.60484 1.3965-.91732 2.2275-.85256.5973.00788 1.1932.05895 1.7832.15283v1.97885h-1.0031c-.3459-.045-.6934.07049-.9454.31419s-.3814.5895-.3521.9407v1.5123h2.213l-.3582 2.3247h-1.8548v5.6309c4.1346-.6239 7.0873-4.3734 6.7604-8.5849-.3269-4.21147-3.8219-7.44995-8.0022-7.41482z" fill="currentColor" fill-rule="evenodd"/></svg>