<svg fill="none" viewBox="0 0 24 24" xmlns="http://www.w3.org/2000/svg"><g fill="currentColor"><path d="m6 14h12v-1.5h-12z"/><path d="m4 18h16v-1.5h-16z"/><path d="m6 22h12v-1.5h-12z"/></g><path d="m10.389 3.26543 3.2192-.00042c.0835-.00006.1661.01633.2432.04823s.1472.07869.2062.13769c.059.05899.1057.12904.1376.20614.0319.07709.0483.15973.0483.24317l.0017 3.85454-2.2452 2.24522-2.24463-2.24463.0005-3.85679c.00052-.16774.0674-.32849.18603-.44712.1186-.11863.2794-.18551.4471-.18603z" stroke="currentColor" stroke-linecap="round" stroke-linejoin="round" stroke-width="1.5" fill="none"/></svg>
