<svg fill="none" viewBox="0 0 24 24" xmlns="http://www.w3.org/2000/svg"><g stroke="currentColor" stroke-width="1.5" fill="none"><rect height="16.5" rx="1.53571" width="16.5" x="3.75" y="3.75"/><path d="m15.2225 13.2414c0 1.7797-1.4428 3.2225-3.2225 3.2225-1.7798 0-3.22253-1.4428-3.22253-3.2225 0-.3585.17475-.9012.53447-1.5851.34749-.6606.81936-1.3646 1.30426-2.01861.4828-.65129.9674-1.23811 1.3321-1.66292.0175-.02039.0347-.0404.0517-.06001.0169.01961.0341.03962.0516.06001.3647.42481.8493 1.01163 1.3321 1.66292.4849.65401.9568 1.35801 1.3043 2.01861.3597.6839.5345 1.2266.5345 1.5851z"/></g></svg>
