<svg fill="none" viewBox="0 0 20 20" xmlns="http://www.w3.org/2000/svg"><path d="m8.91322329.78180339s.69401426 2.48532134.69401426 4.50171413c0 1.93198565-1.2661071 3.49820703-3.19809275 3.49820703-1.94136422 0-3.40442131-1.56622138-3.40442131-3.49820703l.02813571-.33762856c-1.89447137 2.25085707-3.02927847 5.16759264-3.02927847 8.33754974 0 4.1453284 3.35752846 7.5028569 7.50285689 7.5028569 4.14532848 0 7.50285688-3.3575285 7.50285688-7.5028569 0-5.05504985-2.4290499-9.56614256-6.09607121-12.50163531zm-1.67876423 17.19092081c-1.66938566 0-3.0198999-1.3129999-3.0198999-2.9448713 0-1.5193285.98474997-2.5884856 2.63537848-2.9261142 1.66000709-.3376285 3.37628556-1.1348071 4.33289986-2.41967133.3657643 1.20983563.5533357 2.48532133.5533357 3.78894273 0 2.4853213-2.0163928 4.5017141-4.50171414 4.5017141z" transform="translate(2.553223 -.786621)" fill="currentColor" /></svg>