<svg fill="none" viewBox="0 0 20 20" xmlns="http://www.w3.org/2000/svg"><path d="m5.45454545 9.09090909h-5.45454545v1.81818181h5.45454545zm1.97272728-2.94545454-1.92727273-1.92727273-1.28181818 1.28181818 1.92727273 1.92727273zm3.48181817-6.14545455h-1.81818181v5.45454545h1.81818181zm4.8727273 5.5-1.2818182-1.28181818-1.9272727 1.92727273 1.2818182 1.28181818zm-1.2363637 3.59090909v1.81818181h5.4545455v-1.81818181zm-4.5454545-1.81818182c-1.50909091 0-2.72727273 1.21818182-2.72727273 2.72727273 0 1.5090909 1.21818182 2.7272727 2.72727273 2.7272727 1.5090909 0 2.7272727-1.2181818 2.7272727-2.7272727 0-1.50909091-1.2181818-2.72727273-2.7272727-2.72727273zm2.5727273 6.58181823 1.9272727 1.9272727 1.2818182-1.2818182-1.9272727-1.9272727zm-8.35454548.6454545 1.28181818 1.2818182 1.92727273-1.9272727-1.28181818-1.2818182zm4.87272727 5.5h1.81818181v-5.4545455h-1.81818181z" fill="currentColor" /></svg>