<svg fill="none" viewBox="0 0 24 24" xmlns="http://www.w3.org/2000/svg"><g fill="currentColor"><path d="m5.5 18v-12c0-.27614.22386-.5.5-.5h3v-1.5h-3c-1.10457 0-2 .89543-2 2v12c0 1.1046.89543 2 2 2h3v-1.5h-3c-.27614 0-.5-.2239-.5-.5z"/><path d="m13 2v20h-2v-20z"/><path d="m16.5 4v1.5h-1.5v-1.5z"/><path d="m20 6c0-1.10457-.8954-2-2-2v1.5c.2761 0 .5.22386.5.5z"/><path d="m18.5 16.5v-2h1.5v2z"/><path d="m20 13h-1.5v-2h1.5z"/><path d="m18 18.5c.2761 0 .5-.2239.5-.5h1.5c0 1.1046-.8954 2-2 2z"/><path d="m16.5 20v-1.5h-1.5v1.5z"/><path d="m18.5 9.5h1.5v-2h-1.5z"/></g></svg>
