<svg fill="none" viewBox="0 0 24 24" xmlns="http://www.w3.org/2000/svg"><g fill="currentColor"><path d="m6 5.5h12c.2761 0 .5.22386.5.5v3h1.5v-3c0-1.10457-.8954-2-2-2h-12c-1.10457 0-2 .89543-2 2v3h1.5v-3c0-.27614.22386-.5.5-.5z"/><path d="m22 13h-20v-2h20z"/><path d="m20 16.5h-1.5v-1.5h1.5z"/><path d="m18 20c1.1046 0 2-.8954 2-2h-1.5c0 .2761-.2239.5-.5.5z"/><path d="m7.5 18.5h2v1.5h-2z"/><path d="m11 20v-1.5h2v1.5z"/><path d="m5.5 18c0 .2761.22386.5.5.5v1.5c-1.10457 0-2-.8954-2-2z"/><path d="m4 16.5h1.5v-1.5h-1.5z"/><path d="m14.5 18.5v1.5h2v-1.5z"/></g></svg>
