<svg fill="none" viewBox="0 0 20 20" xmlns="http://www.w3.org/2000/svg"><path d="m10 20c4.7333333 0 8.5714286-3.8380952 8.5714286-8.5714286-4.7333334 0-8.5714286 3.8380953-8.5714286 8.5714286zm-6.0952381-11.19047619c0 1.31428569 1.06666667 2.38095239 2.38095239 2.38095239.5047619 0 .96190476-.152381 1.35238095-.4190476l-.01904762.1809524c0 1.3142857 1.06666667 2.3809523 2.38095238 2.3809523 1.3142857 0 2.3809524-1.0666666 2.3809524-2.3809523l-.0190476-.1809524c.3809523.2666666.847619.4190476 1.3523809.4190476 1.3142857 0 2.3809524-1.0666667 2.3809524-2.38095239 0-.95238095-.5619048-1.76190476-1.3619048-2.14285714.8-.38095238 1.3619048-1.19047619 1.3619048-2.14285715 0-1.31428571-1.0666667-2.38095238-2.3809524-2.38095238-.5047619 0-.9619047.15238096-1.3523809.41904762l.0190476-.18095238c0-1.31428571-1.0666667-2.38095238-2.3809524-2.38095238-1.31428571 0-2.38095238 1.06666667-2.38095238 2.38095238l.01904762.18095238c-.38095238-.26666666-.84761905-.41904762-1.35238095-.41904762-1.31428572 0-2.38095239 1.06666667-2.38095239 2.38095238 0 .95238096.56190477 1.76190477 1.36190477 2.14285715-.8.38095238-1.36190477 1.19047619-1.36190477 2.14285714zm6.0952381-4.52380952c1.3142857 0 2.3809524 1.06666666 2.3809524 2.38095238 0 1.31428571-1.0666667 2.38095238-2.3809524 2.38095238-1.31428571 0-2.38095238-1.06666667-2.38095238-2.38095238 0-1.31428572 1.06666667-2.38095238 2.38095238-2.38095238zm-8.57142857 7.14285711c0 4.7333334 3.83809524 8.5714286 8.57142857 8.5714286 0-4.7333333-3.83809524-8.5714286-8.57142857-8.5714286z" fill="currentColor" /></svg>