<svg fill="none" viewBox="0 0 24 24" xmlns="http://www.w3.org/2000/svg"><g fill="currentColor"><path d="m20.2 17h-16.536c-.4424 0-.664-.3619-.664-.8095 0-4.9656 1.9848-9.12821 6.564-10.22997v-1.71351c0-.44766.3576-.80952.8-.80952h3.2c.4424 0 .8.36186.8.80952v1.71351c4.5792 1.10176 6.636 5.26437 6.636 10.22997 0 .4476-.3576.8095-.8.8095zm-7.336-12h-2v.70796c.2648-.02105.8296-.04129 1.1-.04129s.6352.02024.9.04129zm-.9 2.29688c-4.94375 0-7.0584 3.67062-7.464 8.20312h14.864c-.4056-4.5325-2.4563-8.20312-7.4-8.20312z"/><path d="m2 18.5h20v1.5h-20z"/></g></svg>
