<svg fill="none" viewBox="0 0 24 24" xmlns="http://www.w3.org/2000/svg"><rect fill="none" height="13.5" rx=".875" stroke="currentColor" stroke-width="1.5" width="13.5" x="3.75" y="3.75"/><path d="m4 13 3.71429-2 2.78571 1.3333 3.25-2.3333 3.25 2.3333" stroke="currentColor" stroke-linejoin="round" stroke-width="1.5" fill="none"/><g fill="currentColor"><path d="m21.5 11c-.8284 0-1.5-.6716-1.5-1.5v-5c0-.82843.6716-1.5 1.5-1.5z"/><path d="m21.5 21c-.8284 0-1.5-.6716-1.5-1.5v-5c0-.8284.6716-1.5 1.5-1.5z"/><path d="m3 21.5c0-.8284.67157-1.5 1.5-1.5h12c.8284 0 1.5.6716 1.5 1.5z"/></g></svg>
