<svg fill="none" viewBox="0 0 24 24" xmlns="http://www.w3.org/2000/svg"><rect height="16.5" rx="1.25" stroke="currentColor" stroke-width="1.5" width="16.5" x="3.75" y="3.75" fill="none"/><g fill="currentColor"><path d="m8 4.5-4 5v-5z"/><path d="m12 10.5h1v4h-1z"/><path d="m10.2 10.5h-2.4c-.48 0-.8.3333-.8.6667v2.6666c0 .3334.32.6667.8.6667h2.4c.48 0 .8-.3333.8-.6667v-1.3333h-1.2v1h-1.6v-2h2.8v-.3333c0-.3334-.32-.6667-.8-.6667z"/><path d="m17 11.5v-1h-3v4h1v-1.3333h1.3333v-1h-1.3333v-.6667z"/></g></svg>
