<svg fill="none" viewBox="0 0 20 20" xmlns="http://www.w3.org/2000/svg"><path d="m10 12.6315789c1.7473684 0 3.1473684-1.4105263 3.1473684-3.15789469l.0105263-6.31578947c0-1.74736842-1.4105263-3.15789474-3.1578947-3.15789474-1.74736842 0-3.15789474 1.41052632-3.15789474 3.15789474v6.31578947c0 1.74736839 1.41052632 3.15789469 3.15789474 3.15789469zm-1.26315789-9.57894732c0-.69473684.56842105-1.2631579 1.26315789-1.2631579.6947368 0 1.2631579.56842106 1.2631579 1.2631579l-.0105263 6.52631579c0 .69473683-.5578948 1.26315793-1.2526316 1.26315793-.69473684 0-1.26315789-.5684211-1.26315789-1.26315793zm6.84210529 6.42105263c0 3.15789469-2.6736842 5.36842109-5.5789474 5.36842109-2.90526316 0-5.57894737-2.2105264-5.57894737-5.36842109h-1.78947368c0 3.58947369 2.86315789 6.55789469 6.31578947 7.07368419v3.4526316h2.10526318v-3.4526316c3.4526316-.5052631 6.3157895-3.4736842 6.3157895-7.07368419z" fill="currentColor" /></svg>