<svg fill="none" viewBox="0 0 24 24" xmlns="http://www.w3.org/2000/svg"><path d="m12.0026 7.67357c-2.3621 0-4.25762 1.92468-4.25762 4.25763 0 2.3621 1.92468 4.2576 4.25762 4.2576 2.3621 0 4.2576-1.9247 4.2576-4.2576 0-2.33295-1.8955-4.25763-4.2576-4.25763zm.3208 5.36573-.9624.9624-.9623-.9624-.93318-.9331.96238-.9624.9331.9332 2.2163-2.2163.9624.9623zm8.1944-2.3037c-.3791-.35-.5249-.90406-.3207-1.37065l.1749-.43742c.2917-.67072-.0875-1.42893-.7873-1.63306l-.4666-.11665c-.4958-.14581-.8457-.58324-.8749-1.10815v-.49575c-.0291-.72904-.6999-1.25396-1.3997-1.13731l-.4666.08749c-.5249.08748-1.0207-.14581-1.254-.6124l-.2333-.40827c-.3499-.64155-1.1665-.81653-1.7497-.40826l-.3791.26246c-.4083.29161-.9915.29161-1.3998 0l-.3791-.29162c-.5832-.43743-1.42889-.2333-1.77883.40826l-.23329.40827c-.26246.46659-.75821.69988-1.28312.6124l-.46659-.08749c-.72905-.11665-1.37061.40826-1.42893 1.13731l-.02916.46659c-.02916.52491-.3791.96234-.87485 1.10815l-.46659.1458c-.69989.20414-1.07899.96234-.78737 1.63306l.17497.43743c.20413.46659.05832 1.02071-.32078 1.37061l-.34994.3208c-.55408.4666-.55408 1.3414 0 1.808l.34994.3208c.3791.3499.52491.904.32078 1.3706l-.17497.4374c-.29162.6707.08748 1.4289.78737 1.6331l.46659.1166c.49575.1458.84569.5833.87485 1.1082l.02916.4666c.02916.729.69988 1.2539 1.39977 1.1373l.46658-.0875c.52492-.0875 1.02067.1458 1.25396.6124l.2333.4082c.34994.6416 1.16645.8166 1.74975.4083l.3791-.2624c.4082-.2917.9915-.2917 1.3997 0l.3791.2916c.5833.4374 1.429.2333 1.7789-.4083l.2333-.4083c.2624-.4665.7582-.6998 1.2831-.6124l.4666.0875c.729.1167 1.3706-.4082 1.4289-1.1373l.0292-.4666c.0291-.5249.3791-.9623.8748-1.1081l.4666-.1167c.6999-.2041 1.079-.9623.7874-1.633l-.175-.4375c-.2041-.4665-.0583-1.0206.3208-1.3706l.3499-.3207c.5541-.4666.5541-1.3415 0-1.8081zm-8.5152 7.1154c-3.26612 0-5.89068-2.6537-5.89068-5.8906 0-3.26617 2.65372-5.89073 5.89068-5.89073 3.2661 0 5.8907 2.65372 5.8907 5.89073 0 3.2369-2.6246 5.8906-5.8907 5.8906z" fill="currentColor"/></svg>
