<svg fill="none" viewBox="0 0 20 20" xmlns="http://www.w3.org/2000/svg"><path d="m20.5555013 9.96270419-2.2181818-2.52727273.3090909-3.34545454-3.2818182-.74545455-1.7181818-2.89090909-3.0909091 1.32727273-3.09090909-1.32727273-1.71818182 2.89090909-3.28181818.73636364.30909091 3.34545454-2.21818182 2.53636364 2.21818182 2.52727271-.30909091 3.3545455 3.28181818.7454545 1.71818182 2.8909091 3.09090909-1.3363636 3.0909091 1.3272727 1.7181818-2.8909091 3.2818182-.7454545-.3090909-3.3454546zm-4.1 1.91818181.2363636 2.5363636-2.4909091.5636364-1.3 2.1909091-2.3454545-1.0090909-2.34545454 1.0090909-1.3-2.1909091-2.49090909-.5636364.23636363-2.5454545-1.68181818-1.90909091 1.68181818-1.92727273-.23636363-2.52727272 2.49090909-.55454546 1.3-2.19090909 2.34545454 1 2.3454545-1.00909091 1.3 2.19090909 2.4909091.56363637-.2363636 2.53636363 1.6818182 1.91818182zm-6.80909091.8090909h1.81818181v1.8181818h-1.81818181zm0-7.27272726h1.81818181v5.45454546h-1.81818181z" transform="translate(-.565918)" fill="currentColor" /></svg>