<svg fill="none" height="24" viewBox="0 0 24 24" width="24" xmlns="http://www.w3.org/2000/svg"><path clip-rule="evenodd" d="m17.9584 12.5417-7.5833-7.58336h-3.79169c-.29915 0-.54166.24251-.54166.54166v13c0 .2991.24251.5417.54166.5417h10.83329c.2992 0 .5417-.2426.5417-.5417zm-9.20832-9.20836h7.04162 1.625c1.1967 0 2.1667.97005 2.1667 2.16666v1.625 7.0417 4.3333c0 1.1967-.97 2.1667-2.1667 2.1667h-10.83329c-1.19661 0-2.16666-.97-2.16666-2.1667v-13c0-1.19661.97005-2.16666 2.16666-2.16666z" fill="currentColor" fill-rule="evenodd"/></svg>