<svg fill="none" height="25" viewBox="0 0 24 25" width="24" xmlns="http://www.w3.org/2000/svg"><path clip-rule="evenodd" d="m14.5314 1v1.49242h-2.0067v-1.49242zm4.9776 0c1.0996 0 1.991.89091 1.991 1.98989h-1.4933c0-.27475-.2228-.49747-.4977-.49747zm-1.4933 1.49242v-1.49242h-2.0067v1.49242zm1.991 10.94438v-1.9899h1.4933v1.9899zm0-3.4823h1.4933v-1.98989h-1.4933zm-.4977 5.4722c.2749 0 .4977-.2227.4977-.4975h1.4933c0 1.099-.8914 1.9899-1.991 1.9899zm1.991-8.95451h-1.4933v-1.98989h1.4933zm-10.4063-5.47219c-1.09964 0-1.99105.89091-1.99105 1.98989h1.49325c0-.27475.2229-.49747.4978-.49747zm-2.16208 4.87109 7.54938 7.54501v5.9282c0 .2976-.2415.5389-.5393.5389h-10.78475c-.29781 0-.53923-.2413-.53923-.5389v-12.93428c0-.29764.24142-.53893.53923-.53893zm5.39238-1.61678h-7.01009-2.15696c-1.19125 0-2.15695.96514-2.15695 2.15571v12.93428c0 1.1906.9657 2.1557 2.15695 2.1557h10.78475c1.1913 0 2.157-.9651 2.157-2.1557v-4.3114-7.0061-1.61678c0-1.19057-.9657-2.15571-2.157-2.15571z" fill="currentColor" fill-rule="evenodd"/></svg>