<svg fill="none" viewBox="0 0 24 24" xmlns="http://www.w3.org/2000/svg"><path clip-rule="evenodd" d="m20.1658 18.312c0 .9283-.7596 1.6879-1.688 1.6879-.9283 0-1.6879-.7596-1.6879-1.6879 0-.9284 1.6879-3.3758 1.6879-3.3758s1.688 2.4474 1.688 3.3758z" fill="currentColor" fill-rule="evenodd"/><path clip-rule="evenodd" d="m4.97449 13c0 .422.16879.844.42198 1.1815l4.30419 4.3042c.67514.6752 1.68794.6752 2.36304 0l4.3042-4.3042c.2532-.3375.422-.7595.422-1.1815z" fill="currentColor" fill-rule="evenodd"/><path d="m7.92839 3.71155 6.66731 6.66725m-4.895 8.2708-4.30419-4.3042c-.67517-.6751-.67517-1.6879 0-2.3631l5.48569-5.3169 5.4014 5.4013c.6752.6752.6752 1.688 0 2.3631l-4.3042 4.3042c-.5908.5908-1.6035.5908-2.2787-.0844z" stroke="currentColor" stroke-width="1.5"/></svg>
