<svg fill="none" viewBox="0 0 24 24" xmlns="http://www.w3.org/2000/svg"><g clip-rule="evenodd" fill="currentColor" fill-rule="evenodd"><path d="m18 4.5h-12c-.27614 0-.5.22386-.5.5v14.5c0 .2761.22386.5.5.5h12c.2761 0 .5-.2239.5-.5v-14.5c0-.27614-.2239-.5-.5-.5zm-12-1.5h12c1.1046 0 2 .89543 2 2v14.5c0 1.1046-.8954 2-2 2h-12c-1.10457 0-2-.8954-2-2v-14.5c0-1.10457.89543-2 2-2z"/><path d="m10.9123 9.87699c-.3141.21991-.4123.45171-.4123.62301s.0982.4031.4123.623c.3118.2182.7824.377 1.3377.377v1.5c-.8254 0-1.6048-.233-2.1979-.6481-.59069-.4135-1.0521-1.0567-1.0521-1.8519 0-.79516.46141-1.43835 1.0521-1.85186.5931-.41517 1.3725-.64814 2.1979-.64814s1.6048.23297 2.1979.64814c.5907.41351 1.0521 1.0567 1.0521 1.85186 0 .4142-.3358.75-.75.75s-.75-.3358-.75-.75c0-.1713-.0982-.4031-.4123-.62301-.3118-.21821-.7824-.37699-1.3377-.37699s-1.0259.15878-1.3377.37699z"/><path d="m13.5877 14.623c.3141-.2199.4123-.4517.4123-.623s-.0982-.4031-.4123-.623c-.3118-.2182-.7824-.377-1.3377-.377v-1.5c.8254 0 1.6048.233 2.1979.6481.5907.4135 1.0521 1.0567 1.0521 1.8519s-.4614 1.4384-1.0521 1.8519c-.5931.4151-1.3725.6481-2.1979.6481s-1.6048-.233-2.1979-.6481c-.59069-.4135-1.0521-1.0567-1.0521-1.8519 0-.4142.33579-.75.75-.75.4142 0 .75.3358.75.75 0 .1713.0982.4031.4123.623.3118.2182.7824.377 1.3377.377s1.0259-.1588 1.3377-.377z"/><path d="m12.25 15.5c.4142 0 .75.3358.75.75v.5c0 .4142-.3358.75-.75.75s-.75-.3358-.75-.75v-.5c0-.4142.3358-.75.75-.75z"/><path d="m12.25 7c.4142 0 .75.33579.75.75v.5c0 .41421-.3358.75-.75.75s-.75-.33579-.75-.75v-.5c0-.41421.3358-.75.75-.75z"/></g></svg>
