<svg fill="none" viewBox="0 0 24 24" xmlns="http://www.w3.org/2000/svg"><g clip-rule="evenodd" fill="currentColor" fill-rule="evenodd"><path d="m16 3h-10c-.27614 0-.5.22386-.5.5v13.5c0 .2761.22386.5.5.5h10c.2761 0 .5-.2239.5-.5v-13.5c0-.27614-.2239-.5-.5-.5zm-10-1.5h10c1.1046 0 2 .89543 2 2v13.5c0 1.1046-.8954 2-2 2h-10c-1.10457 0-2-.8954-2-2v-13.5c0-1.10457.89543-2 2-2z"/><path d="m9.91233 7.87699c-.31409.21986-.41233.45167-.41233.62301s.09824.40315.41233.62301c.31177.21821.78237.37699 1.33767.37699v1.5c-.8254 0-1.60477-.233-2.19786-.6481-.59073-.41355-1.05214-1.05674-1.05214-1.8519s.46141-1.43835 1.05214-1.85186c.59309-.41517 1.37246-.64814 2.19786-.64814s1.6048.23297 2.1979.64814c.5907.41351 1.0521 1.0567 1.0521 1.85186 0 .41421-.3358.75-.75.75s-.75-.33579-.75-.75c0-.17134-.0982-.40315-.4123-.62301-.3118-.21821-.7824-.37699-1.3377-.37699s-1.0259.15878-1.33767.37699z"/><path d="m12.5877 12.623c.3141-.2199.4123-.4517.4123-.623s-.0982-.4031-.4123-.623c-.3118-.2182-.7824-.377-1.3377-.377v-1.5c.8254 0 1.6048.23297 2.1979.6481.5907.4135 1.0521 1.0567 1.0521 1.8519s-.4614 1.4384-1.0521 1.8519c-.5931.4151-1.3725.6481-2.1979.6481s-1.60477-.233-2.19786-.6481c-.59073-.4135-1.05214-1.0567-1.05214-1.8519 0-.4142.33579-.75.75-.75s.75.3358.75.75c0 .1713.09824.4031.41233.623.31177.2182.78237.377 1.33767.377s1.0259-.1588 1.3377-.377z"/><path d="m11.25 13.5c.4142 0 .75.3358.75.75v.5c0 .4142-.3358.75-.75.75s-.75-.3358-.75-.75v-.5c0-.4142.3358-.75.75-.75z"/><path d="m11.25 5c.4142 0 .75.33579.75.75v.5c0 .41421-.3358.75-.75.75s-.75-.33579-.75-.75v-.5c0-.41421.3358-.75.75-.75z"/></g><path d="m20.25 8.25v11c0 1.1046-.8954 2-2 2h-8" stroke="currentColor" stroke-width="1.5" fill="none"/></svg>
