<svg fill="none" viewBox="-2 -1 24 24" xmlns="http://www.w3.org/2000/svg"><path d="M0 2.538C0 1.865.258 1.22.716.744A2.4 2.4 0 0 1 2.443 0h14.114a2.4 2.4 0 0 1 1.727.744c.458.476.715 1.121.716 1.794v18.616c0 .009-.005.017-.005.026-.018.11-.043.22-.074.327-.004.008-.003.017-.007.025-.008.017-.027.024-.036.04a.817.817 0 0 1-.228.258.77.77 0 0 1-.464.17h-.004a.776.776 0 0 1-.338-.084c-.007-.003-.015-.002-.023-.005l-2.53-1.315-2.532 1.315a.791.791 0 0 1-.728 0L9.5 20.596l-2.532 1.315a.788.788 0 0 1-.727 0L3.71 20.596l-2.532 1.315c-.008.004-.016.003-.024.006-.104.034-.21.06-.318.078-.007 0-.014.005-.022.005a.711.711 0 0 1-.1-.021.767.767 0 0 1-.189-.04 1.97 1.97 0 0 1-.261-.17.829.829 0 0 1-.105-.14.794.794 0 0 1-.073-.097c-.004-.008-.003-.017-.007-.025a.87.87 0 0 1-.042-.16.864.864 0 0 1-.032-.168c0-.01-.005-.016-.005-.025V2.538Zm4.074 16.355 2.53 1.314 2.532-1.314a.79.79 0 0 1 .728 0l2.531 1.314 2.531-1.314a.79.79 0 0 1 .729 0l1.716.892V2.538a.864.864 0 0 0-.238-.598.8.8 0 0 0-.576-.248H2.443a.8.8 0 0 0-.576.249.864.864 0 0 0-.238.597v17.247l1.717-.892a.788.788 0 0 1 .728 0Z" fill="currentColor"/><path d="M8.414 7.333h5.429c.216 0 .423-.089.576-.248a.863.863 0 0 0 .238-.598.863.863 0 0 0-.238-.598.799.799 0 0 0-.576-.248H8.414a.799.799 0 0 0-.575.248.863.863 0 0 0-.239.598c0 .225.086.44.239.598a.8.8 0 0 0 .575.248ZM8.414 11.846h5.429c.216 0 .423-.089.576-.248a.863.863 0 0 0 .238-.598.863.863 0 0 0-.238-.598.799.799 0 0 0-.576-.248H8.414a.799.799 0 0 0-.575.248A.863.863 0 0 0 7.6 11c0 .224.086.44.239.598.152.159.36.248.575.248ZM8.414 16.359h5.429c.216 0 .423-.09.576-.248a.863.863 0 0 0 .238-.598.863.863 0 0 0-.238-.598.799.799 0 0 0-.576-.248H8.414a.799.799 0 0 0-.575.248.863.863 0 0 0-.239.598c0 .224.086.44.239.598.152.159.36.248.575.248ZM5.157 7.333a.787.787 0 0 0 .315-.067.853.853 0 0 0 .26-.181.869.869 0 0 0 .224-.762.852.852 0 0 0-.223-.435.697.697 0 0 0-.261-.181.782.782 0 0 0-.892.179.873.873 0 0 0-.171.927.813.813 0 0 0 .749.52ZM5.157 11.846a.786.786 0 0 0 .315-.068.852.852 0 0 0 .26-.18.85.85 0 0 0 .24-.599.876.876 0 0 0-.24-.599.786.786 0 0 0-.957-.147.824.824 0 0 0-.27.242.863.863 0 0 0-.137.71.858.858 0 0 0 .16.33.79.79 0 0 0 .63.31ZM5.157 16.359a.784.784 0 0 0 .576-.25.873.873 0 0 0 .174-.932.841.841 0 0 0-.235-.33.782.782 0 0 0-.752-.154.806.806 0 0 0-.511.484.873.873 0 0 0 .173.932.812.812 0 0 0 .575.25Z" fill="currentColor"/></svg>