<svg fill="none" viewBox="0 0 20 20" xmlns="http://www.w3.org/2000/svg"><path d="m17.2727273 4.36363636h-2.7272728v-3.63636363h-12.72727268c-1 0-1.81818182.81818182-1.81818182 1.81818182v9.99999995h1.81818182c0 1.509091 1.21818182 2.7272728 2.72727273 2.7272728 1.5090909 0 2.72727272-1.2181818 2.72727272-2.7272728h5.45454543c0 1.509091 1.2181818 2.7272728 2.7272728 2.7272728 1.5090909 0 2.7272727-1.2181818 2.7272727-2.7272728h1.8181818v-4.5454545zm-.4545455 1.36363637 1.7818182 2.27272727h-4.0545455v-2.27272727zm-12.27272725 7.72727277c-.5 0-.90909091-.409091-.90909091-.909091s.40909091-.9090909.90909091-.9090909.9090909.4090909.9090909.9090909-.4090909.909091-.9090909.909091zm2.01818181-2.7272728c-.5-.5545454-1.20909091-.90909088-2.01818181-.90909088-.80909091 0-1.51818182.35454548-2.01818182.90909088h-.70909091v-8.18181815h10.90909088v8.18181815zm8.89090914 2.7272728c-.5 0-.909091-.409091-.909091-.909091s.409091-.9090909.909091-.9090909.9090909.4090909.9090909.9090909-.4090909.909091-.9090909.909091z" transform="translate(0 2)" fill="currentColor" /></svg>