<svg viewBox="0 0 24 24" xmlns="http://www.w3.org/2000/svg"><g fill="currentColor"><path d="M7.075 19.32a6.603 6.603 0 0 0-4.62 1.889.53.53 0 0 0 .003.763 6.6 6.6 0 0 0 9.205-.037.529.529 0 0 0-.004-.763 6.623 6.623 0 0 0-4.584-1.852Zm-.032 3.445a5.542 5.542 0 0 1-3.414-1.18 5.53 5.53 0 0 1 6.86-.026 5.528 5.528 0 0 1-3.446 1.206Z"/><path d="M7.059 10.059A6.89 6.89 0 0 0 .177 16.94 6.794 6.794 0 0 0 .92 20.02a.53.53 0 0 0 .946-.476 5.75 5.75 0 0 1-.632-2.603 5.824 5.824 0 0 1 11.647 0 5.724 5.724 0 0 1-.632 2.6.528.528 0 0 0 .75.691.53.53 0 0 0 .195-.212 6.767 6.767 0 0 0 .746-3.08A6.89 6.89 0 0 0 7.06 10.06Z"/><path d="M9.372 15.195c0-.322-.024-.62-.132-.91a2.168 2.168 0 0 0-1.271-1.27c-.29-.11-.618-.133-.91-.133-.292 0-.62.024-.91.132a2.166 2.166 0 0 0-1.27 1.27c-.11.291-.133.605-.133.91 0 2.595 1.45 2.982 2.313 2.982.864 0 2.313-.387 2.313-2.981Zm-3.567 0c0-.173-.003-.342.052-.504a1.124 1.124 0 0 1 .698-.698c.162-.055.272-.09.504-.09.231 0 .342.035.504.09a1.123 1.123 0 0 1 .697.698c.056.162.053.342.053.504 0 1.922-.945 1.922-1.254 1.922-.309 0-1.254 0-1.254-1.922ZM10.412 13.765a.53.53 0 0 1-.53-.53V2.647A2.65 2.65 0 0 1 12.53 0h8.472a2.648 2.648 0 0 1 2.645 2.645v5.158a2.648 2.648 0 0 1-2.645 2.644h-7.053l-3.163 3.163a.53.53 0 0 1-.374.155ZM12.53 1.059a1.59 1.59 0 0 0-1.589 1.588v9.31l2.414-2.414a.53.53 0 0 1 .374-.155h7.273a1.588 1.588 0 0 0 1.586-1.585V2.645a1.587 1.587 0 0 0-1.586-1.586H12.53Z"/><path d="M12.706 3.735h8.47M12.706 6.559h8.47"/></g></svg>
