<svg width="24" height="24" viewBox="0 0 24 24" fill="none" xmlns="http://www.w3.org/2000/svg">
<path d="M12 23.52C9.72154 23.52 7.49427 22.8444 5.59982 21.5785C3.70536 20.3127 2.22881 18.5135 1.35689 16.4085C0.484972 14.3035 0.256838 11.9872 0.701339 9.75257C1.14584 7.51791 2.24301 5.46524 3.85412 3.85414C5.46522 2.24304 7.51788 1.14586 9.75254 0.701362C11.9872 0.25686 14.3035 0.484995 16.4085 1.35692C18.5135 2.22884 20.3127 3.70539 21.5785 5.59984C22.8443 7.49429 23.52 9.72157 23.52 12C23.52 15.0553 22.3063 17.9855 20.1459 20.1459C17.9854 22.3063 15.0553 23.52 12 23.52ZM12 2.78401C10.1772 2.78401 8.39541 3.32452 6.87985 4.33718C5.36429 5.34985 4.18305 6.78919 3.48551 8.4732C2.78797 10.1572 2.60547 12.0102 2.96107 13.798C3.31667 15.5857 4.19441 17.2278 5.48329 18.5167C6.77217 19.8056 8.4143 20.6833 10.202 21.0389C11.9898 21.3945 13.8428 21.212 15.5268 20.5145C17.2108 19.8169 18.6501 18.6357 19.6628 17.1201C20.6755 15.6046 21.216 13.8228 21.216 12C21.216 9.55577 20.245 7.21165 18.5167 5.48331C16.7883 3.75498 14.4442 2.78401 12 2.78401V2.78401Z" fill="currentColor"/>
<path d="M12 13.536C11.6945 13.536 11.4015 13.4146 11.1854 13.1986C10.9694 12.9825 10.848 12.6895 10.848 12.384V5.856H13.152V12.384C13.152 12.6895 13.0307 12.9825 12.8146 13.1986C12.5986 13.4146 12.3056 13.536 12 13.536V13.536Z" fill="currentColor"/>
<path d="M21.9357 0.434855L18.8647 3.50585L20.4939 5.13502L23.5649 2.06403L21.9357 0.434855Z" fill="currentColor"/>
</svg>
