<svg fill="none" viewBox="0 0 20 20" xmlns="http://www.w3.org/2000/svg"><path d="m10.8187411 12.8292466-2.30909089-2.2818182.02727273-.0272727c1.58181816-1.76363641 2.70909086-3.79090913 3.37272726-5.93636368h2.6636364v-1.81818182h-6.36363639v-1.81818181h-1.81818182v1.81818181h-6.36363636v1.80909091h10.15454547c-.60909092 1.75454546-1.57272729 3.41818182-2.8818182 4.87272728-.84545454-.93636364-1.54545454-1.96363637-2.1-3.04545455h-1.81818181c.66363636 1.48181818 1.57272727 2.88181818 2.7090909 4.14545456l-4.62727272 4.5636363 1.29090909 1.2909091 4.54545454-4.5454545 2.8272727 2.8272727zm5.1181818-4.60909094h-1.8181818l-4.0909091 10.90909094h1.8181818l1.0181819-2.7272728h4.3181818l1.0272727 2.7272728h1.8181818zm-2.3818181 6.36363634 1.4727272-3.9363636 1.4727273 3.9363636z" fill="currentColor" /></svg>