<svg fill="none" viewBox="0 0 24 24" xmlns="http://www.w3.org/2000/svg"><path d="m6.33693 7.16999c-.02446-.16261-.01354-.3286.03202-.48661.04555-.15801.12466-.30433.23193-.42898.10727-.12464.24018-.22467.38964-.29325.14946-.06859.31196-.10411.47641-.10416h9.06497c.7 0 1.235.622 1.13 1.313l-1.681 11.14301c-.0407.2706-.1771.5176-.3844.6961-.2074.1786-.4719.2768-.7456.2769h-5.70197c-.27363-.0001-.53816-.0983-.74552-.2769-.20736-.1785-.34378-.4255-.38448-.6961z" stroke="currentColor" stroke-width="1.5" fill="none"/><path d="m20 4.99999h-16v2h16zm-5.714 0h-4.572c0-.60629.24085-1.18774.6696-1.61645.4287-.4287 1.0101-.66955 1.6164-.66955s1.1877.24085 1.6164.66955c.4288.42871.6696 1.01016.6696 1.61645z" fill="currentColor"/></svg>
