<svg fill="none" viewBox="0 0 24 24" xmlns="http://www.w3.org/2000/svg"><path d="m7.34532 7.19644c.03127-.69843.67672-1.20533 1.36267-1.07017l8.89421 1.75261c.6859.13516 1.0908.84904.8547 1.50713l-3.8044 10.60739c-.1909.5322-.7422.8448-1.2968.7355l-5.59369-1.1022c-.55466-.1093-.94606-.6077-.92076-1.1725z" stroke="currentColor" stroke-width="1.4" fill="none"/><g fill="currentColor"><path d="m18.7958.00018311-14.7958 6.08966689.76121 1.84948 14.79579-6.08967z"/><path d="m13.5123 2.17454s-.9464.38951-2.1138.86999c-1.1673.48043-2.11357.86993-2.11357.86993-.48046-1.16736.0764-2.50318 1.24367-2.983611 1.1674-.480475 2.5032.076331 2.9837 1.243691z"/><path d="m6.5 17 10-4-2.5 7-7-1z"/></g></svg>
