<svg fill="none" viewBox="0 0 20 20" xmlns="http://www.w3.org/2000/svg"><path d="m19.9986483 8.20489366h-7.5333334l3.0444445-3.13333333c-3.0333334-3-7.94444447-3.11111111-10.97777781-.11111111-3.03333333 3.01111111-3.03333333 7.86666668 0 10.87777778 3.03333334 3.0111111 7.94444441 3.0111111 10.97777781 0 1.5111111-1.4888889 2.2666666-3.2333333 2.2666666-5.4333333h2.2222223c0 2.2-.9777778 5.0555555-2.9333334 6.9888889-3.9 3.8666666-10.23333331 3.8666666-14.13333331 0-3.88888889-3.8555556-3.92222222-10.12222227-.02222222-13.97777783 3.9-3.85555555 10.15555553-3.85555555 14.05555553 0l3.0333334-3.12222222zm-9.4444445-2.35555555v4.72222219l3.8888889 2.3111111-.8 1.3444445-4.75555555-2.8222222v-5.55555559z" transform="translate(0 -.293783)" fill="currentColor" /></svg>