<svg fill="none" viewBox="0 0 20 20" xmlns="http://www.w3.org/2000/svg"><path d="m14.9874888 10.357462c-.2502234-.1429848-.5093833-.2591599-.7685433-.357462.25916-.09830206.5183199-.21447721.7685433-.35746202 1.7158177-.9919571 2.6720286-2.78820375 2.6809652-4.6380697-1.5996426-.92046471-3.6371761-.99195711-5.3619303 0-.2502234.1429848-.4825737.31277926-.697051.48257372.0446828-.27703306.0714924-.56300268.0714924-.84897229 0-1.98391421-1.0813226-3.70866846-2.6809651-4.63806971-1.59964254.92940125-2.68096515 2.6541555-2.68096515 4.63806971 0 .28596961.02680965.57193923.07149241.84897229-.21447722-.17873101-.44682753-.34852547-.69705094-.49151028-1.7158177-.9919571-3.75335121-.9204647-5.3619303 0 0 1.84986596.95621091 3.64611261 2.68096515 4.63806971.25022341.14298481.50938338.25915996.76854334.35746202-.25915996.09830205-.51831993.21447725-.76854334.35746205-1.71581769.9919571-2.6720286 2.7882037-2.68096515 4.6380697 1.59964254.9204647 3.63717605.9919571 5.3619303 0 .25022341-.1429848.48257372-.3127793.69705094-.4825738-.04468276.2859697-.07149241.5719393-.07149241.8579089 0 1.9839142 1.08132261 3.7086684 2.68096515 4.6380697 1.5996425-.9294013 2.6809651-2.6541555 2.6809651-4.6380697 0-.2859696-.0268096-.5719392-.0714924-.8489723.2144773.178731.4468276.3395889.697051.4825737 1.7158177.9919571 3.7533512.9204647 5.3619303 0-.0089366-1.8498659-.9651475-3.6461126-2.6809652-4.6380697zm-5.9874888 3.2171582c-1.97497766 0-3.5746202-1.5996425-3.5746202-3.5746202 0-1.97497766 1.59964254-3.5746202 3.5746202-3.5746202 1.9749777 0 3.5746202 1.59964254 3.5746202 3.5746202 0 1.9749777-1.5996425 3.5746202-3.5746202 3.5746202z" transform="translate(1)" fill="currentColor" /></svg>