<svg fill="none" viewBox="0 0 20 20" xmlns="http://www.w3.org/2000/svg"><path d="m15 16.6594678c-1.35 0-2.2.42-2.95.8-.65.33-1.18.6-2.05.6-.9 0-1.4-.25-2.05-.6-.75-.38-1.57-.8-2.95-.8s-2.2.42-2.95.8c-.65.33-1.17.6-2.05.6v1.95c1.35 0 2.2-.42 2.95-.8.65-.33 1.17-.6 2.05-.6s1.4.25 2.05.6c.75.38 1.57.8 2.95.8s2.2-.42 2.95-.8c.65-.33 1.18-.6 2.05-.6.9 0 1.4.25 2.05.6.75.38 1.58.8 2.95.8v-1.95c-.9 0-1.4-.25-2.05-.6-.75-.38-1.6-.8-2.95-.8zm0-5.604419c-1.35 0-2.2.43-2.95.8-.65.32-1.18.6-2.05.6-.9 0-1.4-.25-2.05-.6-.75-.38-1.57-.8-2.95-.8s-2.2.43-2.95.8c-.65.32-1.17.6-2.05.6v1.95c1.35 0 2.2-.43 2.95-.8.65-.35 1.15-.6 2.05-.6s1.4.25 2.05.6c.75.38 1.57.8 2.95.8s2.2-.43 2.95-.8c.65-.35 1.15-.6 2.05-.6s1.4.25 2.05.6c.75.38 1.58.8 2.95.8v-1.95c-.9 0-1.4-.25-2.05-.6-.75-.38-1.6-.8-2.95-.8zm2.95-10.2550488c-.75-.38-1.58-.8-2.95-.8s-2.2.42-2.95.8c-.65.32-1.18.6-2.05.6-.9 0-1.4-.25-2.05-.6-.75-.37-1.57-.8-2.95-.8s-2.2.42-2.95.8c-.65.33-1.17.6-2.05.6v1.93c1.35 0 2.2-.43 2.95-.8.65-.33 1.17-.6 2.05-.6s1.4.25 2.05.6c.75.38 1.57.8 2.95.8s2.2-.43 2.95-.8c.65-.32 1.18-.6 2.05-.6.9 0 1.4.25 2.05.6.75.38 1.58.8 2.95.8v-1.95c-.9 0-1.4-.25-2.05-.58zm-2.95 4.65062988c-1.35 0-2.2.43-2.95.8-.65.35-1.15.6-2.05.6s-1.4-.25-2.05-.6c-.75-.38-1.57-.8-2.95-.8s-2.2.43-2.95.8c-.65.35-1.15.6-2.05.6v1.95c1.35 0 2.2-.43 2.95-.8.65-.32 1.18-.6 2.05-.6s1.4.25 2.05.6c.75.38 1.57.8 2.95.8s2.2-.43 2.95-.8c.65-.32 1.18-.6 2.05-.6.9 0 1.4.25 2.05.6.75.38 1.58.8 2.95.8v-1.95c-.9 0-1.4-.25-2.05-.6-.75-.38-1.6-.8-2.95-.8z" fill="currentColor" /></svg>